<svg width="150" height="70" viewBox="0 0 150 70" fill="none" xmlns="http://www.w3.org/2000/svg">
<g clip-path="url(#clip0_62_4154)">
<path d="M110.868 27.3374L68.8841 8.83054C67.8436 8.37185 66.6247 8.84092 66.1617 9.87825L55.2037 34.4302C54.7407 35.4675 55.2089 36.6803 56.2495 37.139L98.2333 55.6459C99.2739 56.1045 100.493 55.6355 100.956 54.5981L111.914 30.0462C112.377 29.0089 111.909 27.7961 110.868 27.3374Z" fill="#2C394F"/>
<path d="M95.0309 44.431L93 49L95.7433 50.2142L97.7742 45.6453L95.0309 44.431Z" fill="#FF5F00"/>
<path d="M93.8727 46.2893C94.0683 45.8735 94.3612 45.5047 94.7296 45.2105C95.098 44.9164 95.5323 44.7044 96 44.5906C95.7192 44.0939 95.2956 43.6815 94.7777 43.4006C94.2598 43.1197 93.6684 42.9815 93.071 43.002C92.4737 43.0224 91.8945 43.2006 91.3996 43.5162C90.9047 43.8318 90.514 44.272 90.2723 44.7866C90.0305 45.3013 89.9474 45.8695 90.0324 46.4265C90.1174 46.9835 90.367 47.5068 90.7529 47.9365C91.1387 48.3663 91.6452 48.6853 92.2144 48.8569C92.7837 49.0286 93.3927 49.0462 93.972 48.9075C93.7444 48.5071 93.6172 48.063 93.6 47.6092C93.5827 47.1554 93.676 46.7039 93.8727 46.2893Z" fill="#EB001B"/>
<path d="M99.7218 49.1932C99.5566 49.5552 99.3169 49.8827 99.0167 50.1571C98.7165 50.4314 98.3616 50.6471 97.9725 50.7917C97.5834 50.9362 97.1677 51.0069 96.7495 50.9995C96.3313 50.9921 95.9188 50.9068 95.5357 50.7486C94.8797 50.4766 94.3391 50.0057 94 49.411C94.4063 49.3139 94.7883 49.1422 95.1241 48.9059C95.4599 48.6695 95.7429 48.3731 95.9569 48.0336C96.1709 47.694 96.3117 47.3181 96.3711 46.9272C96.4306 46.5364 96.4077 46.1383 96.3036 45.7558C96.2461 45.5246 96.1544 45.302 96.0311 45.0948C96.4355 44.9966 96.8566 44.9744 97.2701 45.0295C97.6836 45.0847 98.0816 45.216 98.4412 45.4161C98.8008 45.6161 99.1151 45.881 99.366 46.1955C99.6168 46.51 99.7995 46.868 99.9034 47.249C100.078 47.8977 100.014 48.5832 99.7218 49.1932Z" fill="#F79E1B"/>
<path d="M103.296 30.9569C103.175 30.9019 103.08 30.8015 103.033 30.6775C102.986 30.5535 102.989 30.4158 103.043 30.2945C103.07 30.235 103.108 30.1814 103.155 30.1365C103.202 30.0917 103.258 30.0565 103.319 30.0331C103.38 30.0097 103.444 29.9985 103.51 30.0002C103.575 30.0018 103.639 30.0162 103.699 30.0426C103.82 30.0978 103.915 30.1976 103.964 30.3211C104.013 30.4447 104.012 30.5822 103.961 30.705C103.906 30.8258 103.805 30.9199 103.681 30.9671C103.556 31.0143 103.418 31.0106 103.296 30.9569Z" fill="white"/>
<path d="M103.505 30.1691C103.587 30.427 103.587 30.7127 103.505 30.9706C103.4 31.2211 103.219 31.4133 103 31.5074L103.17 32C103.494 31.8574 103.758 31.567 103.906 31.1912C104.031 30.8086 104.031 30.3826 103.906 30L103.486 30.1765L103.505 30.1691Z" fill="white"/>
<path d="M105.321 29.1488C105.537 29.7833 105.519 30.488 105.272 31.1079C105.024 31.7277 104.567 32.2121 104 32.4545L104.229 33C104.905 32.6935 105.45 32.1066 105.75 31.3614C106.05 30.6163 106.081 29.7705 105.838 29L105.321 29.1653V29.1488Z" fill="white"/>
<path d="M107.199 29.1244V29.1689C107.457 30.1841 107.379 31.2645 106.978 32.2246C106.577 33.1848 105.878 33.9649 105 34.4311L105.298 35C106.302 34.4719 107.105 33.5844 107.568 32.4898C108.031 31.3951 108.125 30.1614 107.835 29L107.248 29.1422L107.199 29.1244Z" fill="white"/>
<path d="M73.5439 21.4438L68.8614 19.3797C68.3857 19.17 67.8316 19.3772 67.6239 19.8426L66.3382 22.7233C66.1305 23.1886 66.3478 23.7359 66.8236 23.9456L71.506 26.0097C71.9818 26.2194 72.5358 26.0121 72.7435 25.5468L74.0292 22.6661C74.2369 22.2008 74.0196 21.6535 73.5439 21.4438Z" fill="#B79946"/>
<path opacity="0.1" d="M70.6483 43.3868L90 52L89.3517 17.6132L70 9L70.6483 43.3868Z" fill="#D7EBFF"/>
<path d="M85.9409 31H40.0591C38.9219 31 38 31.9209 38 33.0568V59.9432C38 61.0791 38.9219 62 40.0591 62H85.9409C87.0781 62 88 61.0791 88 59.9432V33.0568C88 31.9209 87.0781 31 85.9409 31Z" fill="#005FAD"/>
<path d="M88 34H38V41H88V34Z" fill="#00060F"/>
<path d="M72 43H40V48H72V43Z" fill="#CCCCCC"/>
<path opacity="0.51" d="M47.2799 49H42.7201C41.2178 49 40 50.3412 40 51.9956V52.0044C40 53.6588 41.2178 55 42.7201 55H47.2799C48.7822 55 50 53.6588 50 52.0044V51.9956C50 50.3412 48.7822 49 47.2799 49Z" fill="#E5E5E5"/>
<path d="M82 56V60L85 58L82 56Z" fill="#00060F"/>
<path opacity="0.1" d="M69.5633 62H47L62.445 31H85L69.5633 62Z" fill="#D7E9FF"/>
</g>
<defs>
<clipPath id="clip0_62_4154">
<rect width="74" height="53" fill="white" transform="translate(38 9)"/>
</clipPath>
</defs>
</svg>
