<svg width="150" height="70" viewBox="0 0 150 70" fill="none" xmlns="http://www.w3.org/2000/svg">
<g filter="url(#filter0_d_62_4119)">
<path fill-rule="evenodd" clip-rule="evenodd" d="M131.783 40.0884C132.518 41.0092 133.666 41.5618 134.861 41.5157C135.182 41.5157 135.549 41.4697 135.871 41.4236C136.101 41.3776 136.376 41.2855 136.606 41.1934C136.789 41.1013 136.973 40.9632 137.157 40.8251C137.295 40.6869 137.432 40.5488 137.524 40.4107C137.616 40.3186 137.708 40.1804 137.8 39.9963L138.075 41.3776H140.142V27.5642L137.754 27.7023V30.9255C137.754 31.478 137.8 32.0766 137.846 32.6291C137.295 31.6161 136.284 31.1096 134.861 31.1096C133.666 31.0636 132.518 31.6161 131.783 32.537C131.003 33.5961 130.635 34.9314 130.681 36.2666C130.589 37.6019 131.003 38.9833 131.783 40.0884ZM137.846 36.4508C137.8 38.6149 137.019 39.72 135.412 39.72C134.723 39.72 134.08 39.3977 133.666 38.8451C133.207 38.1084 132.977 37.1875 133.023 36.3127C132.977 35.4378 133.207 34.517 133.666 33.7802C134.034 33.2277 134.677 32.9054 135.366 32.9514C136.101 32.9054 136.789 33.2277 137.203 33.7802C137.616 34.3328 137.846 35.2076 137.846 36.4508Z" fill="white"/>
<path d="M62.6627 41.5156C60.7337 41.5156 59.1722 40.917 58.024 39.6738C56.8758 38.4306 56.3247 36.773 56.3247 34.6089C56.3247 32.5829 56.9217 30.9253 58.1158 29.6821C59.3559 28.4389 61.0552 27.7483 62.8005 27.8403C64.1783 27.7943 65.5561 28.1627 66.7502 28.9454L65.9694 30.8333C65.0509 30.2347 63.9486 29.9124 62.8464 29.8663C61.7441 29.8203 60.6419 30.3268 59.9529 31.2016C59.2181 32.2146 58.8507 33.4578 58.8966 34.701C58.8966 36.2205 59.2181 37.4176 59.907 38.2925C60.6419 39.1673 61.6982 39.6278 62.8464 39.5817C63.9946 39.5817 65.1428 39.3055 66.1532 38.7529L66.4747 40.6868C65.3265 41.2393 63.9946 41.5617 62.6627 41.5156Z" fill="white"/>
<path fill-rule="evenodd" clip-rule="evenodd" d="M72.721 41.5152C71.3891 41.5613 70.1031 41.0548 69.2305 40.0879C68.3579 39.0288 67.8986 37.6935 67.9445 36.3122C67.9445 34.7006 68.3579 33.4114 69.2305 32.4905C70.0572 31.5696 71.2513 31.1091 72.8128 31.1091C74.1447 31.0171 75.4307 31.5696 76.3033 32.5365C77.176 33.5956 77.6352 34.9309 77.5893 36.3122C77.6352 37.6935 77.176 39.0288 76.3033 40.0879C75.3848 41.0548 74.0529 41.6073 72.721 41.5152ZM72.8128 39.7195C73.5477 39.7655 74.2366 39.4432 74.6499 38.8446C75.1092 38.0619 75.2929 37.187 75.247 36.3122C75.2929 35.4373 75.0633 34.5164 74.604 33.7337C73.7773 32.7207 72.3077 32.5365 71.2972 33.3653C71.1595 33.4574 71.0217 33.5956 70.9298 33.7337C70.4705 34.5164 70.2868 35.3913 70.3328 36.3122C70.2868 37.187 70.5165 38.0619 70.9757 38.7986C71.3432 39.3972 72.078 39.7655 72.8128 39.7195Z" fill="white"/>
<path d="M79.5639 27.8405V29.8664H81.9522V27.8405H79.5639Z" fill="white"/>
<path d="M79.5639 31.3398V41.3315H81.9522V31.3398H79.5639Z" fill="white"/>
<path d="M84.4326 31.3398H86.3616L86.6372 32.583C87.5098 31.6621 88.7498 31.1096 90.0358 31.0635C91.0003 30.9715 91.9647 31.3398 92.6537 32.0765C93.2507 32.7672 93.5263 33.7341 93.5263 34.9773V41.2855H91.1381V35.2997C91.184 34.655 91.0462 34.0564 90.7247 33.5039C90.4032 33.0895 89.898 32.8593 89.3469 32.9053C88.8417 32.9053 88.3365 33.0435 87.9231 33.3197C87.5098 33.55 87.1883 33.9183 87.0046 34.3327C86.8668 35.0694 86.8209 35.8061 86.8209 36.5429V41.4236H84.4326V31.3398Z" fill="white"/>
<path d="M95.4553 40.7791C96.5576 41.3317 97.7517 41.5619 98.9917 41.5158C100.048 41.5619 101.058 41.2856 101.931 40.8252C102.62 40.2726 102.987 39.3978 102.941 38.5229C102.987 37.8323 102.758 37.1876 102.298 36.6812C101.701 36.1286 101.013 35.7142 100.278 35.484L99.9562 35.3459L99.7265 35.2538C99.2213 35.0696 98.7161 34.8394 98.2109 34.5631C97.9354 34.3789 97.7976 34.1027 97.7976 33.8264C97.7976 33.5041 97.9354 33.2278 98.2109 33.0897C98.5324 32.9055 98.9458 32.8594 99.3132 32.8594C100.232 32.8594 101.196 33.0897 102.023 33.5041L102.62 31.8465C101.564 31.34 100.415 31.0637 99.2673 31.1097C98.3028 31.0637 97.3383 31.2939 96.5116 31.8465C95.8686 32.353 95.5012 33.1357 95.5471 33.9645C95.5012 34.6091 95.7309 35.2538 96.1442 35.7603C96.6953 36.3128 97.3843 36.7272 98.1191 36.9574L98.6243 37.1416C99.1754 37.3258 99.6806 37.556 100.186 37.8783C100.461 38.0625 100.599 38.3848 100.599 38.7071C100.599 39.0755 100.415 39.3978 100.14 39.582C99.7725 39.7661 99.3132 39.8582 98.8999 39.8582C98.3028 39.8122 97.7517 39.7201 97.2005 39.582C96.6953 39.4438 96.1901 39.2136 95.6849 38.9834L95.4553 40.7791Z" fill="white"/>
<path fill-rule="evenodd" clip-rule="evenodd" d="M104.916 41.3315V27.9786H109.371C110.29 27.9786 111.208 28.1167 112.081 28.393C112.77 28.6232 113.413 29.0836 113.826 29.7283C114.285 30.4189 114.515 31.2017 114.469 32.0305C114.469 32.6291 114.377 33.1816 114.239 33.7342C114.056 34.2406 113.78 34.7011 113.413 35.0694C112.953 35.5299 112.448 35.8062 111.851 35.9903C111.07 36.2206 110.244 36.3127 109.371 36.3127C108.544 36.3127 107.856 36.3127 107.35 36.2206V41.3315H104.916ZM109.096 34.4709C109.555 34.4709 109.968 34.4248 110.427 34.3327C110.749 34.2406 111.025 34.1486 111.3 33.9644C111.484 33.8262 111.668 33.6421 111.805 33.4118C111.943 33.2277 111.989 32.9974 112.035 32.7672C112.081 32.537 112.081 32.3068 112.081 32.0766C112.127 31.432 111.851 30.8333 111.392 30.4189C110.795 30.0045 110.106 29.8204 109.371 29.8664H107.35V34.5169C107.442 34.4709 107.993 34.4709 109.096 34.4709Z" fill="white"/>
<path fill-rule="evenodd" clip-rule="evenodd" d="M116.26 40.7326C116.903 41.2851 117.684 41.5614 118.51 41.5153C119.107 41.5153 119.705 41.4233 120.256 41.147C120.807 40.8707 121.312 40.5024 121.725 40.088C121.725 40.088 121.817 40.3182 121.909 40.6865C122.001 41.0549 122.093 41.2851 122.093 41.2851H123.838V34.7468C123.838 33.4115 123.517 32.4906 122.919 31.892C122.322 31.2934 121.312 31.0172 119.98 31.0172C118.694 30.9711 117.362 31.2474 116.168 31.7539L116.444 32.5827C116.673 33.1352 116.765 33.4115 116.765 33.4115C117.684 32.9971 118.694 32.7669 119.75 32.7208C120.21 32.6748 120.669 32.8129 121.036 33.1352C121.358 33.5036 121.496 34.0101 121.45 34.4705V35.0231L120.807 35.0691L120.072 35.1612C119.98 35.1842 119.877 35.1957 119.773 35.2072C119.67 35.2187 119.567 35.2303 119.475 35.2533C118.373 35.2993 117.316 35.6216 116.398 36.2202C115.709 36.7727 115.341 37.6476 115.387 38.5224C115.341 39.3512 115.663 40.1801 116.26 40.7326ZM120.577 39.3973C120.164 39.6736 119.659 39.8117 119.153 39.8117C118.786 39.8577 118.373 39.7196 118.051 39.4433C117.776 39.2131 117.684 38.8448 117.684 38.4764C117.684 37.9699 117.913 37.4174 118.373 37.1411C119.016 36.8188 119.75 36.6346 120.485 36.5886L120.99 36.5425L121.45 36.4965V38.4304C121.266 38.8448 120.945 39.1671 120.577 39.3973Z" fill="white"/>
<path d="M126.273 29.8664V27.8405H128.661V29.8664H126.273Z" fill="white"/>
<path d="M126.273 41.3315V31.3398H128.661V41.3315H126.273Z" fill="white"/>
<path fill-rule="evenodd" clip-rule="evenodd" d="M20.1145 32.8594H26.3638L28.5605 41.3777H20.1604C16.3025 41.3777 9 39.0294 9 30.1888C9 21.3483 16.3025 19 20.1604 19H26.2687L28.5192 27.4722H20.1145C19.3337 27.5183 17.4507 27.7945 17.4507 30.1888C17.4047 30.8795 17.6344 31.5702 18.0936 32.0767C18.6448 32.5371 19.3796 32.8134 20.1145 32.8594Z" fill="#001D6D"/>
<path d="M30.9994 50.5405H39.542L38.3938 46.3505H40.6442C44.5021 46.3505 51.7587 44.0022 51.7587 35.1616C51.7587 26.321 44.5021 24.0188 40.6442 24.0188H23.9266L26.3148 32.8594H40.4605C41.2872 32.8594 43.3999 32.6291 43.5376 35.0695C43.6295 37.3257 41.5168 37.4638 40.6901 37.5099H27.509L30.9994 50.5405Z" fill="#0C98FA"/>
</g>
<defs>
<filter id="filter0_d_62_4119" x="-4" y="0" width="158" height="78" filterUnits="userSpaceOnUse" color-interpolation-filters="sRGB">
<feFlood flood-opacity="0" result="BackgroundImageFix"/>
<feColorMatrix in="SourceAlpha" type="matrix" values="0 0 0 0 0 0 0 0 0 0 0 0 0 0 0 0 0 0 127 0" result="hardAlpha"/>
<feOffset dy="4"/>
<feGaussianBlur stdDeviation="2"/>
<feComposite in2="hardAlpha" operator="out"/>
<feColorMatrix type="matrix" values="0 0 0 0 0 0 0 0 0 0 0 0 0 0 0 0 0 0 0.25 0"/>
<feBlend mode="normal" in2="BackgroundImageFix" result="effect1_dropShadow_62_4119"/>
<feBlend mode="normal" in="SourceGraphic" in2="effect1_dropShadow_62_4119" result="shape"/>
</filter>
</defs>
</svg>
