<svg width="150" height="70" viewBox="0 0 150 70" fill="none" xmlns="http://www.w3.org/2000/svg">
<path opacity="0.1" d="M110 54C113.314 54 116 53.7761 116 53.5C116 53.2239 113.314 53 110 53C106.686 53 104 53.2239 104 53.5C104 53.7761 106.686 54 110 54Z" fill="#000002"/>
<path opacity="0.1" d="M92.5 59C96.0899 59 99 58.7761 99 58.5C99 58.2239 96.0899 58 92.5 58C88.9102 58 86 58.2239 86 58.5C86 58.7761 88.9102 59 92.5 59Z" fill="#000002"/>
<path opacity="0.1" d="M75.5 65C79.6421 65 83 64.5523 83 64C83 63.4477 79.6421 63 75.5 63C71.3579 63 68 63.4477 68 64C68 64.5523 71.3579 65 75.5 65Z" fill="#000002"/>
<path opacity="0.1" d="M56.5 59C60.0898 59 63 58.7761 63 58.5C63 58.2239 60.0898 58 56.5 58C52.9101 58 50 58.2239 50 58.5C50 58.7761 52.9101 59 56.5 59Z" fill="#000002"/>
<path opacity="0.1" d="M40 54C43.3137 54 46 53.7761 46 53.5C46 53.2239 43.3137 53 40 53C36.6863 53 34 53.2239 34 53.5C34 53.7761 36.6863 54 40 54Z" fill="#000002"/>
<path opacity="0.1" d="M39.5 54C44.1944 54 48 53.5523 48 53C48 52.4477 44.1944 52 39.5 52C34.8056 52 31 52.4477 31 53C31 53.5523 34.8056 54 39.5 54Z" fill="#000002"/>
<path opacity="0.1" d="M56.5 60C62.299 60 67 59.5523 67 59C67 58.4477 62.299 58 56.5 58C50.701 58 46 58.4477 46 59C46 59.5523 50.701 60 56.5 60Z" fill="#000002"/>
<path opacity="0.1" d="M109.5 54C114.194 54 118 53.5523 118 53C118 52.4477 114.194 52 109.5 52C104.806 52 101 52.4477 101 53C101 53.5523 104.806 54 109.5 54Z" fill="#000002"/>
<path opacity="0.1" d="M92.5 60C98.299 60 103 59.5523 103 59C103 58.4477 98.299 58 92.5 58C86.701 58 82 58.4477 82 59C82 59.5523 86.701 60 92.5 60Z" fill="#000002"/>
<path opacity="0.1" d="M75.5 65C81.8513 65 87 64.3284 87 63.5C87 62.6716 81.8513 62 75.5 62C69.1487 62 64 62.6716 64 63.5C64 64.3284 69.1487 65 75.5 65Z" fill="#000002"/>
<path d="M110.011 28C112.584 28.0021 115.099 28.7386 117.237 30.1161C119.375 31.4936 121.039 33.4502 122.02 35.7381C123 38.026 123.252 40.5422 122.744 42.9679C122.236 45.3937 120.991 47.6199 119.166 49.3645C117.341 51.1091 115.018 52.2937 112.492 52.7681C109.967 53.2425 107.351 52.9855 104.978 52.0295C102.604 51.0736 100.579 49.4618 99.1588 47.3982C97.7386 45.3347 96.9874 42.9123 97.0002 40.4378C97.0144 37.1308 98.3922 33.9641 100.831 31.6325C103.27 29.3008 106.572 27.9945 110.011 28ZM110.259 33.3275H104.373C104.19 33.3275 104.125 33.3275 104.125 33.5659C104.125 34.3226 104.125 35.0896 104.125 35.8566C104.125 36.0742 104.125 36.1468 104.406 36.1468C105.699 36.1468 106.993 36.1468 108.286 36.1468C108.459 36.1468 108.523 36.1468 108.513 36.3644C108.513 36.779 108.513 37.1936 108.513 37.6082C108.513 37.7326 108.513 37.8052 108.34 37.8155C107.78 37.8155 107.262 37.8881 106.659 37.9606C105.554 38.0568 104.467 38.2902 103.425 38.6551C103.054 38.779 102.714 38.9728 102.422 39.2251C102.298 39.3244 102.218 39.4663 102.2 39.6209C102.182 39.7755 102.227 39.9309 102.325 40.0543C102.352 40.0904 102.385 40.122 102.422 40.1476C102.7 40.3938 103.026 40.5841 103.382 40.7073C104.919 41.2228 106.529 41.5094 108.157 41.5572C108.416 41.5572 108.469 41.6401 108.469 41.8682C108.469 43.6509 108.469 45.444 108.469 47.2268C108.469 47.403 108.469 47.4652 108.707 47.4652H111.693C111.908 47.4652 111.962 47.403 111.962 47.1957C111.962 45.4751 111.962 43.7442 111.962 42.0133C111.962 41.5676 111.962 41.5676 112.415 41.5365H112.857C114.083 41.4544 115.295 41.2353 116.468 40.8835C116.936 40.7569 117.375 40.5459 117.761 40.2616C117.907 40.1737 118.012 40.0353 118.054 39.8751C118.096 39.7149 118.072 39.5452 117.988 39.4013C117.934 39.3203 117.864 39.25 117.783 39.194C117.639 39.075 117.479 38.974 117.309 38.8935C116.795 38.6459 116.252 38.458 115.692 38.3338C114.544 38.0781 113.375 37.9152 112.199 37.8466C112.037 37.8466 112.005 37.7948 112.005 37.6393C112.005 37.2558 112.005 36.8723 112.005 36.4888C112.005 36.1053 112.07 36.1468 112.339 36.1468H116.166C116.36 36.1468 116.435 36.1468 116.435 35.898C116.435 35.1207 116.435 34.3433 116.435 33.5763C116.435 33.3586 116.435 33.2964 116.155 33.2964L110.259 33.3275Z" fill="#01A478"/>
<path d="M110.094 33.0308H115.983C116.222 33.0308 116.276 33.0924 116.265 33.3079C116.265 34.0811 116.265 34.8509 116.265 35.6173C116.265 35.8123 116.2 35.8534 116.005 35.8534H112.191C111.963 35.8534 111.865 35.8534 111.886 36.1408C111.908 36.4282 111.886 36.9003 111.886 37.2801C111.886 37.4238 111.886 37.4751 112.082 37.4853C113.268 37.5481 114.446 37.7096 115.603 37.9677C116.165 38.0808 116.71 38.2637 117.221 38.5117C117.393 38.5927 117.553 38.6927 117.7 38.8094C117.846 38.8997 117.949 39.041 117.985 39.2024C118.022 39.3639 117.99 39.5325 117.895 39.6716C117.841 39.7487 117.77 39.815 117.689 39.8666C117.301 40.15 116.858 40.3592 116.385 40.4824C115.199 40.8308 113.973 41.0478 112.734 41.129H112.299C111.843 41.129 111.843 41.129 111.843 41.6012V46.7331C111.843 46.9384 111.843 47 111.582 47H108.572C108.377 47 108.323 47 108.323 46.7639C108.323 44.9985 108.323 43.2331 108.323 41.4677C108.323 41.2317 108.323 41.1598 108.018 41.1496C106.374 41.1006 104.748 40.8168 103.194 40.3079C102.838 40.1919 102.513 40.0066 102.238 39.7639C102.173 39.7159 102.119 39.6562 102.078 39.5881C102.038 39.5201 102.013 39.4451 102.004 39.3677C101.995 39.2902 102.002 39.2118 102.025 39.1371C102.049 39.0624 102.088 38.9929 102.14 38.9326L102.238 38.8504C102.528 38.5938 102.872 38.398 103.248 38.2757C104.3 37.9194 105.395 37.6884 106.508 37.588C107.073 37.5161 107.595 37.4751 108.203 37.4443C108.366 37.4443 108.377 37.3724 108.377 37.239C108.377 36.8284 108.377 36.4179 108.377 36.0073C108.377 35.8226 108.377 35.7918 108.138 35.7918H104.194C103.955 35.7918 103.911 35.7199 103.911 35.5147C103.911 34.7551 103.911 33.9956 103.911 33.2361C103.911 33.0411 103.965 33 104.161 33L110.094 33.0308ZM110.018 40.2771C111.929 40.3098 113.838 40.1724 115.722 39.8666C116.216 39.7953 116.696 39.6534 117.145 39.4457C117.308 39.3636 117.341 39.2815 117.145 39.1686C116.935 39.0237 116.709 38.8999 116.472 38.7991C115.064 38.2291 113.566 37.8823 112.039 37.7727C111.876 37.7727 111.843 37.7727 111.854 37.9575C111.854 38.5015 111.854 39.0557 111.854 39.61C111.854 39.8768 111.767 39.9384 111.506 39.9487C110.517 39.9487 109.54 39.8871 108.551 39.8871C108.399 39.8871 108.377 39.8255 108.377 39.7023C108.377 39.1276 108.377 38.5528 108.377 37.978C108.377 37.783 108.312 37.7522 108.116 37.7625C107.08 37.8341 106.054 37.9991 105.052 38.2551C104.322 38.4117 103.624 38.6823 102.988 39.0557C102.662 39.261 102.662 39.3328 102.988 39.4868C103.41 39.6623 103.856 39.7831 104.313 39.846C106.193 40.1521 108.099 40.2896 110.007 40.2566L110.018 40.2771Z" fill="#FCFDFD"/>
<path d="M110.003 40.9906C108.171 41.03 106.34 40.8659 104.534 40.5004C104.097 40.4137 103.669 40.2698 103.259 40.0714C102.914 39.8875 102.914 39.8017 103.259 39.5566C103.872 39.109 104.543 38.7819 105.245 38.5883C106.214 38.2824 107.205 38.0854 108.205 38C108.382 38 108.445 38 108.445 38.2574C108.445 38.9438 108.445 39.6424 108.445 40.3288C108.445 40.4636 108.445 40.5371 108.612 40.5371C109.564 40.5371 110.505 40.6352 111.457 40.6107C111.707 40.6107 111.812 40.5371 111.791 40.2062C111.791 39.5566 111.791 38.8947 111.791 38.2329C111.791 38.0735 111.791 38 111.969 38.0123C113.439 38.1402 114.881 38.5544 116.235 39.2379C116.466 39.3609 116.686 39.5086 116.894 39.6792C117.051 39.8262 117.019 39.9243 116.894 40.0223C116.464 40.2645 116.006 40.4298 115.534 40.5126C113.708 40.882 111.856 41.042 110.003 40.9906Z" fill="#01A478"/>
<path opacity="0.15" d="M111 43.4445C111.002 46.9049 109.818 50.2671 107.636 53C105.068 52.5552 102.699 51.3636 100.842 49.5824C98.985 47.8012 97.7266 45.5142 97.2331 43.0231C96.7395 40.5319 97.034 37.9538 98.0776 35.6288C99.1212 33.3038 100.865 31.3412 103.079 30C105.488 31.3762 107.486 33.3405 108.876 35.6986C110.265 38.0566 110.997 40.7267 111 43.4445Z" fill="#000002"/>
<path d="M40.0215 28C42.5922 28.0041 45.1039 28.7409 47.2392 30.1174C49.3744 31.4939 51.0373 33.4481 52.0176 35.7332C52.9979 38.0182 53.2517 40.5314 52.7468 42.9551C52.2419 45.3788 51.001 47.6041 49.181 49.3498C47.361 51.0955 45.0436 52.2831 42.5217 52.7626C39.9998 53.242 37.3867 52.9918 35.0127 52.0435C32.6387 51.0953 30.6104 49.4915 29.1842 47.435C27.758 45.3784 26.9979 42.9615 27 40.4897C26.9943 37.1908 28.3495 34.0244 30.7684 31.6849C33.1873 29.3455 36.4724 28.024 39.9032 28.0103L40.0215 28ZM34.9032 37.45C34.7097 37.45 34.5161 37.45 34.3226 37.5017C33.5521 37.6395 32.8623 38.0477 32.3871 38.6469C31.9119 39.2461 31.6851 39.9937 31.7507 40.7447C31.8164 41.4956 32.1697 42.1963 32.7423 42.7109C33.3149 43.2254 34.0659 43.5171 34.8495 43.5294C35.437 43.5536 36.0191 43.4131 36.5251 43.1249C37.031 42.8367 37.4388 42.4132 37.6989 41.9061C37.7595 41.7743 37.8466 41.6553 37.9551 41.5559C38.0636 41.4565 38.1914 41.3786 38.3312 41.3268C38.471 41.2749 38.6201 41.2501 38.7699 41.2537C38.9198 41.2573 39.0674 41.2893 39.2043 41.3478C39.3102 41.3911 39.4083 41.4504 39.4946 41.5236C40.0215 42.0612 40.2796 42.4438 39.871 43.0745C39.4812 43.6943 39.3398 44.4294 39.4731 45.1423C39.5687 45.7255 39.8389 46.2693 40.2506 46.7073C40.6624 47.1452 41.1979 47.4585 41.7917 47.6086C42.3855 47.7588 43.0119 47.7395 43.5945 47.553C44.1771 47.3665 44.6906 47.0209 45.0722 46.5584C45.4539 46.0959 45.6872 45.5366 45.7437 44.9487C45.8002 44.3608 45.6775 43.7698 45.3904 43.2479C45.1034 42.726 44.6644 42.2957 44.1273 42.0097C43.5901 41.7237 42.978 41.5943 42.3656 41.6373C42.1942 41.6527 42.0214 41.6336 41.8582 41.5811C41.695 41.5286 41.545 41.4439 41.4178 41.3325C41.2905 41.2211 41.1889 41.0853 41.1193 40.934C41.0498 40.7826 41.0139 40.619 41.0139 40.4535C41.0139 40.288 41.0498 40.1243 41.1193 39.973C41.1889 39.8216 41.2905 39.6859 41.4178 39.5744C41.545 39.463 41.695 39.3783 41.8582 39.3259C42.0214 39.2734 42.1942 39.2542 42.3656 39.2697H42.6667C43.5125 39.1712 44.2835 38.755 44.8113 38.1119C45.3392 37.4688 45.5809 36.651 45.4839 35.8371V35.651C45.3221 34.8859 44.8594 34.2105 44.1923 33.7655C43.5252 33.3205 42.7051 33.1404 41.9032 33.2626C41.1795 33.3792 40.5188 33.7296 40.0301 34.2559C39.5414 34.7822 39.2539 35.453 39.2151 36.1576C39.2071 36.7982 39.394 37.427 39.7527 37.9669C39.8472 38.0866 39.9159 38.2233 39.9547 38.3689C39.9935 38.5145 40.0016 38.6661 39.9785 38.8147C39.927 39.0457 39.8027 39.2558 39.6225 39.4163C39.4422 39.5769 39.2149 39.68 38.9714 39.7117C38.728 39.7433 38.4803 39.702 38.2621 39.5933C38.044 39.4846 37.8661 39.3138 37.7527 39.1042C37.4898 38.5971 37.0823 38.1722 36.5777 37.8793C36.0732 37.5864 35.4925 37.4375 34.9032 37.45Z" fill="#549FDA"/>
<path d="M35.173 37.1096C35.7643 37.1047 36.3451 37.2536 36.8487 37.5393C37.3523 37.8249 37.7582 38.2358 38.0199 38.7247C38.1403 38.9516 38.3432 39.1324 38.5932 39.2356C38.8433 39.3389 39.1247 39.3581 39.3886 39.2899C39.6142 39.2476 39.8211 39.1444 39.9829 38.9935C40.1447 38.8425 40.2542 38.6505 40.2974 38.442C40.3399 38.1491 40.2575 37.8524 40.0674 37.6143C39.6988 37.0924 39.5081 36.4807 39.5199 35.858C39.5595 35.1701 39.8522 34.5152 40.3499 34.0014C40.8476 33.4876 41.5204 33.1455 42.2573 33.0317C43.0703 32.9211 43.8984 33.1024 44.5707 33.5381C45.243 33.9738 45.7083 34.6308 45.8706 35.3735C45.9545 35.7674 45.9526 36.1728 45.865 36.5661C45.7773 36.9594 45.6057 37.3326 45.3602 37.6642C45.1146 37.9958 44.8 38.279 44.4346 38.4975C44.0692 38.7159 43.6604 38.8652 43.2318 38.9366H43.0347C42.929 38.9421 42.8229 38.9421 42.7172 38.9366C42.3832 38.9472 42.0668 39.0776 41.8357 39.3001C41.6045 39.5227 41.4768 39.8196 41.4799 40.1277C41.4995 40.4312 41.6442 40.7163 41.8844 40.9246C42.1246 41.1329 42.4421 41.2487 42.7719 41.2482C43.4676 41.2261 44.1514 41.419 44.7144 41.7964C45.2774 42.1737 45.6875 42.7138 45.8792 43.3307C46.071 43.9475 46.0335 44.6058 45.7728 45.2008C45.512 45.7958 45.043 46.2934 44.4402 46.6143C43.8374 46.9353 43.1355 47.0612 42.4461 46.9721C41.7568 46.883 41.1195 46.584 40.6357 46.1226C40.1519 45.6612 39.8493 45.064 39.7761 44.4258C39.7029 43.7876 39.8633 43.1452 40.2317 42.6007C40.6477 41.985 40.385 41.5914 39.8484 41.0867C39.7336 40.9935 39.5999 40.9222 39.4551 40.8768C39.3102 40.8314 39.1571 40.8129 39.0045 40.8223C38.8518 40.8317 38.7027 40.8688 38.5657 40.9315C38.4286 40.9942 38.3064 41.0812 38.206 41.1876C38.1285 41.2687 38.0657 41.3607 38.0199 41.4601C37.755 41.9552 37.3397 42.3686 36.8245 42.65C36.3093 42.9313 35.7165 43.0685 35.1183 43.0449C34.3242 43.0219 33.5674 42.7291 32.9935 42.2228C32.4195 41.7164 32.0689 41.0323 32.0091 40.3021C31.9493 39.5718 32.1846 38.8469 32.6696 38.2669C33.1546 37.6869 33.8552 37.2927 34.6365 37.1601C34.7788 37.1298 34.9759 37.1298 35.173 37.1096Z" fill="white"/>
<path d="M91.8096 29H93.1267C93.802 29.0223 94.4748 29.0915 95.1398 29.207C98.6077 29.7839 101.769 31.4854 104.103 34.0313C106.437 36.5773 107.804 39.8157 107.979 43.2132C108.034 44.251 107.98 45.2915 107.818 46.3188C107.277 49.6647 105.58 52.7349 103.004 55.0298C100.427 57.3248 97.1237 58.7095 93.63 58.9585C92.5082 59.0398 91.3807 59.0016 90.2676 58.8447C86.7299 58.3477 83.478 56.6859 81.0609 54.1399C78.6437 51.5938 77.2094 48.3194 77 44.8695C77.0112 44.7905 77.0112 44.7104 77 44.6314V43.3478C77.1726 39.6432 78.7568 36.1312 81.4474 33.488C84.1381 30.8448 87.7451 29.2573 91.574 29.0311C91.6534 29.0281 91.7323 29.0177 91.8096 29ZM85.3846 46.5983C85.416 46.6078 85.4496 46.6078 85.481 46.5983L87.1943 46.1014L87.8475 45.9047C87.1729 48.1097 86.509 50.3147 85.8343 52.5196L85.6523 53.1097H98.877C99.0159 53.1204 99.1541 53.0824 99.2662 53.0025C99.3784 52.9226 99.4569 52.8063 99.4874 52.6749C99.723 51.8675 99.9693 51.0704 100.205 50.2629C100.247 50.1516 100.243 50.0288 100.193 49.9205C100.143 49.8123 100.051 49.7271 99.9372 49.6832C99.8739 49.6679 99.8077 49.6679 99.7444 49.6832H91.1778C91.1819 49.6662 91.1819 49.6485 91.1778 49.6314C91.7132 47.913 92.2486 46.1842 92.7626 44.4555C92.7684 44.4368 92.7795 44.4201 92.7947 44.4073C92.8098 44.3945 92.8284 44.3861 92.8483 44.383L95.1934 43.8343C95.2156 43.83 95.2362 43.82 95.2531 43.8055C95.27 43.7909 95.2827 43.7723 95.2898 43.7515L95.7716 42.1366C95.7716 42.1366 95.7716 42.1366 95.7716 42.0745L93.3301 42.7991C93.3195 42.7689 93.3195 42.7362 93.3301 42.706C94.1868 39.8799 95.0542 37.0642 95.9108 34.2381C95.9334 34.1824 95.9443 34.1229 95.943 34.0631C95.9418 34.0032 95.9283 33.9442 95.9034 33.8894C95.8786 33.8346 95.8428 33.7851 95.7981 33.7437C95.7535 33.7023 95.7008 33.6698 95.6431 33.648C95.5757 33.6381 95.5071 33.6381 95.4397 33.648H92.1736C92.0341 33.6357 91.8948 33.6746 91.7837 33.7571C91.6725 33.8396 91.5977 33.9596 91.574 34.0932C90.546 37.4679 89.5216 40.8392 88.5007 44.207C88.4935 44.2373 88.4776 44.265 88.4549 44.287C88.4322 44.3089 88.4035 44.3243 88.3722 44.3312L86.0485 45.0041C86.0321 45.0086 86.0169 45.0165 86.004 45.0272C85.991 45.0379 85.9806 45.0512 85.9735 45.0662L85.3846 46.5983Z" fill="#345D9C"/>
<path d="M85 47.2689L85.5508 45.6237C85.5535 45.606 85.5626 45.5898 85.5765 45.5782C85.5904 45.5665 85.6081 45.5602 85.6265 45.5604L87.9702 44.8643C88.0018 44.8572 88.0307 44.8416 88.0536 44.8192C88.0766 44.7968 88.0926 44.7686 88.0999 44.7378C89.1295 41.3138 90.1628 37.8827 91.1997 34.4446C91.2282 34.3116 91.3053 34.1933 91.4166 34.1118C91.5279 34.0303 91.6658 33.9911 91.8046 34.0017H95.1528C95.2783 33.9958 95.4012 34.0375 95.4958 34.1181C95.5905 34.1987 95.6495 34.3119 95.6605 34.4341C95.6718 34.5004 95.6718 34.5681 95.6605 34.6345C94.7964 37.5136 93.9215 40.3927 93.0575 43.2613C93.0466 43.2957 93.0466 43.3324 93.0575 43.3668L95.5201 42.6285C95.5201 42.6285 95.5201 42.6813 95.5201 42.7024L95.034 44.337C95.028 44.3588 95.0156 44.3784 94.9983 44.3934C94.981 44.4083 94.9597 44.4181 94.9368 44.4214L92.539 45.0858C92.5194 45.09 92.5012 45.0989 92.4861 45.1119C92.471 45.1248 92.4595 45.1412 92.4526 45.1596C91.927 46.9173 91.3941 48.6751 90.8541 50.4328C90.8592 50.45 90.8592 50.4683 90.8541 50.4855H99.4948C99.6191 50.4797 99.7408 50.5217 99.8337 50.6026C99.9266 50.6834 99.9833 50.7967 99.9916 50.9179C100.003 50.9772 100.003 51.0379 99.9916 51.0972C99.754 51.9198 99.5056 52.7424 99.268 53.5545C99.2393 53.6894 99.1606 53.8093 99.047 53.891C98.9334 53.9728 98.7928 54.0107 98.6523 53.9974H85.3024L85.486 53.3963C86.1557 51.1464 86.8326 48.9 87.5166 46.6572L86.901 46.8365L85.1728 47.3533L85 47.2689Z" fill="#FEFEFE"/>
<path opacity="0.15" d="M39 43.4445C38.9973 46.9068 40.1851 50.2704 42.3742 53C44.9407 52.5536 47.3079 51.3608 49.1634 49.579C51.019 47.7972 52.2758 45.51 52.768 43.0191C53.2603 40.5282 52.9649 37.9507 51.9209 35.6265C50.8768 33.3022 49.1331 31.3405 46.9198 30C44.5158 31.3817 42.5221 33.3473 41.1337 35.7041C39.7454 38.0609 39.0102 40.7282 39 43.4445Z" fill="#000002"/>
<path d="M56.5 59C65.0604 59 72 52.0604 72 43.5C72 34.9396 65.0604 28 56.5 28C47.9396 28 41 34.9396 41 43.5C41 52.0604 47.9396 59 56.5 59Z" fill="#5B6AB4"/>
<path d="M57.0051 32C57.096 32 57.096 32.0636 57.1264 32.1166L60.9675 38.6756L64 43.9737C63.8989 44.0372 63.818 43.9737 63.7271 43.9101L61.4527 42.8505L58.0159 41.2505C57.69 41.07 57.3522 40.9142 57.0051 40.7842V39.8094C56.9983 37.1957 56.9983 34.5925 57.0051 32Z" fill="#C0CBF6"/>
<path d="M56 32C56 34.6107 56 37.2213 56 39.832V40.8056C55.9249 40.8068 55.8514 40.829 55.787 40.8698L55.0159 41.2336L51.4957 42.892L49.1522 43.962C49.1015 43.962 49.0507 44.0476 49 43.962L51.242 40.1102L55.8681 32.1605L56 32Z" fill="#FDFEFE"/>
<path d="M56.0292 41C56.422 41.138 56.8042 41.3034 57.173 41.4951L61.0618 43.1941L63.6353 44.3193C63.7382 44.3193 63.8183 44.4543 63.9441 44.3868C64.0699 44.3193 63.9441 44.4993 63.9441 44.5443L61.9196 45.7145L59.2318 47.256L56.624 48.7412L56.258 48.955C56.1894 48.955 56.1322 49.0563 56.0407 48.955C55.9492 48.8537 56.0407 48.775 56.0407 48.6962V41.225C56.0426 41.1498 56.0387 41.0746 56.0292 41Z" fill="#8198ED"/>
<path d="M56.9953 41C57.0016 41.075 57.0016 41.1504 56.9953 41.2254V48.7408C56.9953 48.831 56.9953 48.9324 56.938 49L52.8765 46.6901L49.1936 44.5831C49.1248 44.5831 48.8953 44.5831 49.0559 44.3577C49.1133 44.4366 49.1707 44.3577 49.228 44.3577L51.8783 43.231L55.8595 41.4845L56.7314 41.0901C56.8113 41.0408 56.9015 41.0099 56.9953 41Z" fill="#C0CBF6"/>
<path d="M57 50.1617C57.4331 49.9422 57.836 49.6704 58.259 49.4195L62.177 47.0674L63.8993 46.022C63.9058 46.015 63.9137 46.0095 63.9223 46.0057C63.931 46.0019 63.9403 46 63.9496 46C63.959 46 63.9683 46.0019 63.977 46.0057C63.9856 46.0095 63.9934 46.015 64 46.022C63.8388 46.2624 63.6878 46.5028 63.5266 46.7328C62.187 48.6563 60.8576 50.5799 59.4978 52.4929L57.141 55.9009C57.141 55.9009 57.141 56.0263 57.0302 55.995L57 50.1617Z" fill="#C0CBF6"/>
<path d="M56 50.1693V56C55.6145 55.5089 55.2797 54.9551 54.9145 54.4744C52.9734 51.7436 51.0391 48.985 49.1116 46.1985C49.0609 46.1358 49 46.094 49 46C49.4159 46.1985 49.8014 46.4598 50.1971 46.7001L55.8681 50.0961C55.915 50.1145 55.9593 50.1391 56 50.1693Z" fill="#FDFEFE"/>
<path opacity="0.15" d="M94 47.3194C94.0008 44.0284 93.1353 40.7937 91.4885 37.9327C89.8416 35.0717 87.4699 32.6826 84.6061 31C82.3838 32.2677 80.5215 34.069 79.1919 36.2369C77.8622 38.4048 77.1083 40.8691 77 43.4015V44.697C77.0109 44.7768 77.0109 44.8576 77 44.9373C77.192 48.3876 78.5792 51.6679 80.9289 54.2282C83.2786 56.7885 86.4481 58.4732 89.906 59C92.5548 55.6681 93.9962 51.5555 94 47.3194Z" fill="#000002"/>
<path opacity="0.15" d="M56 47.3778C56.0006 51.5864 57.4409 55.6753 60.0941 59C63.2131 58.4479 66.0876 56.9915 68.3403 54.8219C70.5931 52.6523 72.1188 49.871 72.7173 46.8429C73.3158 43.8148 72.959 40.6815 71.6939 37.8541C70.4287 35.0268 68.3143 32.6376 65.628 31C62.6952 32.6774 60.264 35.071 58.5752 37.9437C56.8864 40.8165 55.9987 44.0686 56 47.3778Z" fill="#000002"/>
<path d="M75.357 64C71.417 63.9546 67.6066 62.6263 64.5353 60.2277C61.464 57.8291 59.3094 54.4987 58.4162 50.7695C58.2225 49.961 58.093 49.1393 58.0287 48.3116C58.0287 47.7573 57.9641 47.2134 58.0287 46.6591C58.0938 42.8871 59.4477 39.2432 61.8774 36.3008C64.3071 33.3585 67.6746 31.2847 71.45 30.4059C72.2547 30.2335 73.0713 30.1181 73.8932 30.0608C76.1817 29.8719 78.486 30.1243 80.6738 30.8034C83.6138 31.7018 86.26 33.3334 88.3487 35.5356C90.4373 37.7377 91.8954 40.4335 92.5776 43.3541C92.7597 44.1069 92.8785 44.873 92.9328 45.6446C92.9865 46.2218 93.0081 46.8013 92.9973 47.3808C92.9639 48.9315 92.7067 50.47 92.2332 51.9513C91.2946 54.9109 89.5461 57.567 87.1746 59.6357C84.803 61.7045 81.8976 63.1081 78.7688 63.6967C78.1356 63.8135 77.4959 63.8938 76.853 63.9372C76.4117 63.9686 75.9704 63.9791 75.357 64ZM75.8628 38.0409C75.8525 37.9786 75.8525 37.915 75.8628 37.8527C76.1534 36.8068 76.444 35.7609 76.7238 34.715C76.7238 34.5581 76.7238 34.5581 76.5947 34.5163L74.7758 34.0561C74.6143 34.0561 74.6143 34.0561 74.5713 34.1711V34.2443L73.9578 36.5035C73.8717 36.8277 73.7748 37.1519 73.6995 37.4762C73.6995 37.5598 73.6349 37.5807 73.5596 37.5598H73.5165L72.225 37.2461L69.3513 36.5348C69.2113 36.5348 69.2113 36.5348 69.1683 36.6499C68.9961 37.2774 68.8131 37.9154 68.6409 38.5534C68.636 38.6231 68.636 38.693 68.6409 38.7626V38.8254H68.7701L70.2984 39.1914C70.4492 39.2267 70.5913 39.2911 70.7162 39.3806C70.841 39.4701 70.9462 39.583 71.0254 39.7127C71.1047 39.8423 71.1564 39.9861 71.1776 40.1355C71.1987 40.2848 71.1889 40.4368 71.1487 40.5825C70.6607 42.472 70.1836 44.3651 69.7172 46.2617C69.3943 47.5481 69.0714 48.8346 68.7378 50.121C68.7042 50.2707 68.6225 50.4061 68.5044 50.5076C68.3864 50.6091 68.2382 50.6715 68.0812 50.6858C67.9504 50.7168 67.8138 50.7168 67.683 50.6858L66.2408 50.3511C66.1009 50.3511 66.1009 50.3511 66.0471 50.4348C65.9071 50.759 65.7565 51.0728 65.6165 51.397L65.0353 52.6939C65.0353 52.7671 65.0353 52.7985 65.0353 52.8194L65.4551 52.9345L68.1351 53.6457C68.4902 53.7398 68.8562 53.813 69.2113 53.8967C69.3943 53.8967 69.3943 53.949 69.3513 54.1163C69.0499 55.225 68.7701 56.3231 68.4795 57.4318C68.4795 57.5678 68.4795 57.5678 68.5763 57.6096L69.7925 57.9443L70.5675 58.1639C70.6428 58.1639 70.6859 58.1639 70.6966 58.0907C70.7074 58.0175 70.6966 58.0907 70.6966 58.028L71.5469 54.8903C71.6115 54.6706 71.6115 54.6602 71.8483 54.702C72.3563 54.7829 72.8594 54.8911 73.3551 55.0262C73.4196 55.0262 73.4304 55.0262 73.4196 55.1204C73.4148 55.1586 73.4148 55.1972 73.4196 55.2354L72.5801 58.2999C72.565 58.3816 72.5434 58.462 72.5155 58.5404C72.5084 58.5473 72.5027 58.5554 72.4988 58.5644C72.4949 58.5734 72.4929 58.583 72.4929 58.5927C72.4929 58.6025 72.4949 58.6121 72.4988 58.6211C72.5027 58.6301 72.5084 58.6382 72.5155 58.645H72.6339L74.4852 59.2203C74.7112 59.2935 74.6789 59.3144 74.7435 59.0843L75.6798 55.8002C75.6798 55.6538 75.6798 55.6538 75.8736 55.6747C76.6109 55.7961 77.3547 55.8765 78.1015 55.9152C78.871 55.9571 79.6427 55.8937 80.394 55.727C81.4622 55.5077 82.3983 54.8875 82.9986 54.0013C83.3222 53.5179 83.5757 52.9935 83.752 52.4429C83.9686 51.8446 84.0814 51.2154 84.0857 50.5812C84.0867 50.1625 84.0016 49.7479 83.8352 49.3617C83.6689 48.9755 83.4247 48.6256 83.117 48.3325C82.7608 47.9702 82.3552 47.6571 81.9116 47.4017C81.8577 47.4017 81.7932 47.4017 81.7609 47.318C81.7286 47.2343 81.7609 47.318 81.847 47.318C82.4222 47.2012 82.9554 46.9383 83.3921 46.5562C83.8288 46.1741 84.1535 45.6863 84.3332 45.1425C84.4727 44.747 84.5595 44.3358 84.5915 43.9189C84.6849 43.2277 84.5532 42.5254 84.2148 41.9107C83.8801 41.3476 83.4114 40.8706 82.8479 40.5197C82.2424 40.093 81.5844 39.7417 80.8891 39.4738L80.0065 39.16C79.8128 39.0973 79.8343 39.0973 79.8774 38.9509C80.1141 38.0828 80.3402 37.2147 80.577 36.3361C80.6415 36.127 80.6953 35.9073 80.7492 35.6877C80.803 35.468 80.7492 35.5517 80.6415 35.5099L78.9087 35.0288C78.8118 35.0288 78.6934 34.9137 78.6073 34.966C78.5212 35.0183 78.532 35.1543 78.5105 35.2589C78.2522 36.2525 78.0046 37.2565 77.7571 38.2501C77.7571 38.407 77.7571 38.407 77.5418 38.3756L76.5193 38.1664C76.3116 38.1361 76.1066 38.0906 75.9059 38.0305L75.8628 38.0409Z" fill="#FF9416"/>
<path d="M76.123 37.9054C76.3296 37.9648 76.5395 38.0134 76.7518 38.0509L77.7997 38.2589C77.9651 38.2589 77.9651 38.2589 78.0092 38.1341C78.274 37.0943 78.5277 36.1481 78.7814 35.1604C78.7814 35.0564 78.7814 34.9212 78.8917 34.8692C79.002 34.8172 79.1013 34.8692 79.2005 34.9316L80.9765 35.4099C81.1199 35.4099 81.1199 35.4099 81.0868 35.5867C81.0537 35.7634 80.9654 36.0234 80.9103 36.2313C80.6676 37.0943 80.4249 37.9677 80.1933 38.8307C80.1933 38.9763 80.1271 38.9763 80.3146 39.0387L81.2081 39.3298C81.9262 39.5919 82.6049 39.9415 83.2267 40.3696C83.7787 40.722 84.2388 41.1877 84.5724 41.7317C84.9282 42.3437 85.0673 43.0467 84.9695 43.7385C84.9314 44.1522 84.8425 44.5604 84.7048 44.955C84.5167 45.4953 84.1813 45.9794 83.7322 46.359C83.283 46.7386 82.7359 47.0002 82.1457 47.1177C82.1457 47.1177 82.1457 47.1177 82.0685 47.1177C81.9913 47.1177 82.1678 47.1801 82.2119 47.2009C82.7063 47.441 83.1599 47.7494 83.5576 48.1159C84.1861 48.7141 84.5423 49.5199 84.5504 50.3618C84.5417 50.9885 84.4262 51.6099 84.2084 52.2022C84.0259 52.7522 83.7662 53.2767 83.4363 53.7618C82.8151 54.6373 81.8584 55.2522 80.7669 55.4774C79.9969 55.6432 79.206 55.7062 78.4174 55.6646C77.652 55.6272 76.8895 55.5473 76.134 55.4254C75.9796 55.4254 75.9686 55.4254 75.9355 55.5398C75.6046 56.5796 75.2847 57.7233 74.9648 58.8151C74.8986 59.0438 74.9648 59.023 74.7111 58.9503L72.8028 58.3784H72.6925C72.6925 58.3784 72.6263 58.3784 72.6925 58.2848L72.7587 58.0457L73.608 55.0199C73.6018 54.982 73.6018 54.9435 73.608 54.9056C73.608 54.8536 73.608 54.8224 73.608 54.812C73.0896 54.6872 72.5822 54.5624 72.0638 54.4793C71.8101 54.4793 71.8101 54.4793 71.7549 54.6768L70.8835 57.7961C70.8787 57.8167 70.8787 57.8379 70.8835 57.8585C70.8835 57.9313 70.8835 57.9417 70.7511 57.9209L69.9569 57.7129L68.7105 57.3698C68.5671 57.3698 68.5671 57.3698 68.6002 57.193C68.909 56.1533 69.2068 54.9991 69.4936 53.9074C69.4936 53.741 69.4936 53.741 69.3502 53.689C68.9862 53.6059 68.6112 53.5331 68.2472 53.4395L65.5006 52.7428L65.0704 52.6285C64.9821 52.6285 64.9711 52.5765 65.0704 52.5037L65.666 51.204L66.1073 50.2578C66.1073 50.133 66.1073 50.133 66.2948 50.1642L67.7839 50.5177C67.9227 50.5387 68.0642 50.5387 68.2031 50.5177C68.3628 50.5006 68.5131 50.4375 68.6334 50.337C68.7538 50.2366 68.8385 50.1036 68.8759 49.9563L69.8687 46.1195C70.354 44.2271 70.843 42.3417 71.3357 40.4632C71.3757 40.3205 71.3854 40.1718 71.3643 40.0256C71.3432 39.8793 71.2917 39.7385 71.2129 39.611C71.134 39.4835 71.0292 39.372 70.9046 39.2827C70.7799 39.1934 70.6378 39.1282 70.4864 39.0907L68.9201 38.7268H68.7877C68.7819 38.7173 68.7788 38.7065 68.7788 38.6956C68.7788 38.6846 68.7819 38.6739 68.7877 38.6644C68.7814 38.5987 68.7814 38.5325 68.7877 38.4668C68.9642 37.8326 69.1517 37.1983 69.3282 36.5641C69.3282 36.4185 69.3282 36.4185 69.5267 36.4601L72.4609 37.1567C72.9242 37.2711 73.3764 37.3647 73.8397 37.4583H73.9059C73.9941 37.4583 74.0272 37.4582 74.0493 37.3751L74.314 36.4185L74.8104 34.131C74.8104 33.9854 74.8104 33.9854 75.02 34.0166L76.8952 34.4741C77.0606 34.4741 77.0606 34.4741 77.0165 34.6821C76.7297 35.7218 76.4319 36.7616 76.1451 37.8014C76.1336 37.8351 76.1262 37.87 76.123 37.9054ZM76.6415 52.8468C77.1466 52.8768 77.6535 52.8276 78.1416 52.7013C78.5072 52.6128 78.8414 52.4347 79.1104 52.1851C79.3794 51.9356 79.5735 51.6234 79.6732 51.2803C79.7729 50.9372 79.7746 50.5753 79.678 50.2314C79.5814 49.8874 79.3901 49.5737 79.1233 49.322C78.9418 49.1466 78.738 48.9929 78.5167 48.8645C77.9147 48.5111 77.2656 48.2349 76.5863 48.0431C75.7149 47.7831 74.8324 47.6064 73.939 47.4192C73.8176 47.4192 73.8066 47.4192 73.7735 47.5232L73.4867 48.7917C73.2109 49.8315 72.9352 50.8713 72.6704 51.9942C72.6704 52.119 72.6704 52.119 72.7587 52.1502L73.6963 52.3581C74.6728 52.6097 75.6748 52.763 76.6856 52.8156L76.6415 52.8468ZM74.4353 45.2357C74.4756 45.2404 74.5164 45.2404 74.5567 45.2357C75.4053 45.4716 76.2719 45.6454 77.1489 45.7556C77.6899 45.8335 78.2403 45.8335 78.7814 45.7556C79.2278 45.673 79.6362 45.4624 79.9506 45.1525C80.2558 44.8084 80.4229 44.3741 80.4229 43.9256C80.4229 43.4771 80.2558 43.0428 79.9506 42.6987C79.6984 42.4258 79.4003 42.194 79.0682 42.0124C78.5677 41.7516 78.0389 41.5425 77.4908 41.3886C76.8952 41.2118 76.2885 41.0766 75.6818 40.9207C75.5274 40.9207 75.5274 40.9207 75.4832 41.0351C75.2406 41.9812 74.9869 42.9378 74.7442 43.884C74.6229 44.3415 74.5015 44.7886 74.3912 45.2565L74.4353 45.2357Z" fill="#FFFFFE" stroke="white" stroke-width="0.106667" stroke-miterlimit="10"/>
<path d="M75.9284 53.9941C74.9468 53.9365 73.9736 53.7687 73.0253 53.4933L72.104 53.2657C71.9861 53.2657 71.9861 53.2657 72.0183 53.0949L72.8646 49.5551L73.186 48.1324C73.186 47.9844 73.186 47.9844 73.3467 48.0186C74.2037 48.2234 75.0714 48.4169 75.907 48.7015C76.5683 48.9071 77.1993 49.2097 77.7817 49.6007C77.9987 49.7383 78.1969 49.9068 78.3709 50.1015C78.6572 50.3856 78.8578 50.7534 78.9474 51.1586C79.0371 51.5638 79.0117 51.988 78.8744 52.3779C78.7692 52.7274 78.5808 53.042 78.3274 53.2913C78.074 53.5406 77.7643 53.716 77.4282 53.8006C76.9423 53.9556 76.4351 54.021 75.9284 53.9941Z" fill="#FF9416"/>
<path d="M74 45.4213C74.1098 44.9551 74.2305 44.4995 74.3513 44.0334C74.5928 43.0692 74.8452 42.0945 75.0977 41.1303C75.0977 40.982 75.0977 40.982 75.2843 41.0244C75.8881 41.1727 76.4918 41.3104 77.0846 41.4906C77.63 41.6474 78.1563 41.8605 78.6543 42.1263C78.9852 42.3151 79.2818 42.5549 79.5325 42.8361C79.8345 43.1834 80 43.6223 80 44.0757C80 44.5291 79.8345 44.968 79.5325 45.3154C79.2253 45.6402 78.8168 45.8597 78.3689 45.9405C77.8305 46.0198 77.2827 46.0198 76.7443 45.9405C75.8716 45.8282 75.0091 45.6511 74.1647 45.4107L74 45.4213Z" fill="#FF9416"/>
<path d="M51.9779 17.9177C51.9573 18.4895 51.7747 19.0463 51.4481 19.5331C51.1102 20.0067 50.6311 20.3806 50.0682 20.61C49.4396 20.8789 48.7522 21.011 48.0592 20.9961C47.5089 21.0203 46.9596 20.9327 46.4502 20.7396C45.9409 20.5464 45.4839 20.2524 45.1119 19.8785C44.3309 18.9838 43.9377 17.8546 44.008 16.7087V16.282C43.9964 15.5073 44.1737 14.7401 44.5269 14.0367C44.8185 13.4252 45.3031 12.9084 45.9177 12.5534C46.548 12.1866 47.2804 11.996 48.0261 12.0048C49.0332 11.9579 50.0236 12.2545 50.8078 12.8379C51.5212 13.4311 51.95 14.2605 52 15.1441H49.6709C49.6992 14.7433 49.5611 14.3475 49.2845 14.0367C48.9244 13.785 48.4772 13.6623 48.0261 13.6913C47.7796 13.6758 47.5332 13.7225 47.3134 13.8263C47.0936 13.9301 46.9087 14.0872 46.7787 14.2806C46.4688 14.8572 46.3244 15.4973 46.3593 16.1398V16.7494C46.3014 17.4457 46.4342 18.1444 46.7456 18.7813C46.8822 18.9839 47.0775 19.1473 47.3096 19.2532C47.5417 19.3591 47.8013 19.4033 48.0592 19.3807C48.4932 19.4086 48.9227 19.2853 49.2624 19.0353C49.4127 18.8914 49.5294 18.7207 49.6053 18.5337C49.6813 18.3468 49.7148 18.1475 49.704 17.9482L51.9779 17.9177Z" fill="white"/>
<path d="M58.2037 17.8007H57.0789V20.9271H55V12.0066H58.4347C59.2889 11.9553 60.1347 12.2051 60.835 12.7152C61.1213 12.9539 61.349 13.2598 61.4991 13.6077C61.6493 13.9555 61.7177 14.3354 61.6987 14.7161C61.7179 15.255 61.5927 15.7888 61.3372 16.2584C61.0629 16.7153 60.6645 17.0778 60.1923 17.3005L62 20.9166V21H59.7303L58.2037 17.8007ZM57.0789 16.1333H58.4347C58.5971 16.1461 58.7603 16.124 58.9141 16.0684C59.0679 16.0128 59.209 15.925 59.3286 15.8103C59.4343 15.6875 59.5153 15.5441 59.5671 15.3884C59.6188 15.2327 59.6401 15.0679 59.6298 14.9036C59.64 14.7385 59.6176 14.573 59.564 14.4171C59.5105 14.2612 59.427 14.1183 59.3185 13.997C59.2011 13.8821 59.0618 13.7939 58.9096 13.7383C58.7574 13.6826 58.5956 13.6607 58.4347 13.6739H57.0789V16.1333Z" fill="white"/>
<path d="M68.9948 15.908L70.6514 12H73L70.0957 17.773V21H67.8938V17.773L65 12H67.3381L68.9948 15.908Z" fill="white"/>
<path d="M79.143 17.9515V21H77V12.0012H80.551C81.1731 11.9859 81.7901 12.1187 82.3523 12.3888C82.8518 12.61 83.2764 12.9741 83.574 13.4364C83.8647 13.9144 84.0121 14.4676 83.9984 15.0287C84.0123 15.4269 83.9354 15.8229 83.7739 16.1862C83.6123 16.5495 83.3703 16.8703 83.0667 17.1239C82.3375 17.6847 81.4343 17.9633 80.5199 17.9096L79.143 17.9515ZM79.143 16.2754H80.551C80.8967 16.2996 81.2383 16.1869 81.5034 15.9611C81.6157 15.8438 81.7023 15.7039 81.7576 15.5504C81.8129 15.397 81.8356 15.2335 81.8244 15.0706C81.8405 14.8825 81.8195 14.693 81.7626 14.5132C81.7058 14.3333 81.6141 14.1667 81.4931 14.023C81.3751 13.8964 81.232 13.7965 81.0733 13.7297C80.9145 13.6629 80.7436 13.6308 80.5717 13.6354H79.143V16.2754Z" fill="white"/>
<path d="M95 13.6744H92.1254V21H89.7744V13.6744H87V12H95V13.6744Z" fill="white"/>
<path d="M105.999 16.7076C106.015 17.4837 105.85 18.2533 105.515 18.9593C105.215 19.5854 104.728 20.1113 104.117 20.4706C103.484 20.8382 102.754 21.0213 102.015 20.998C101.28 21.0181 100.552 20.8426 99.9131 20.4909C99.3101 20.1437 98.8273 19.6319 98.5256 19.0202C98.1761 18.3429 97.9961 17.596 98.0001 16.8394V16.3526C98.0081 15.5514 98.2096 14.763 98.5887 14.0501C98.8895 13.424 99.376 12.8981 99.9866 12.5388C100.62 12.1698 101.349 11.9833 102.089 12.0012C102.827 11.983 103.556 12.1658 104.191 12.5287C104.767 12.9059 105.219 13.4337 105.494 14.0501C105.842 14.7454 106.014 15.5098 105.999 16.2816V16.7076ZM103.792 16.3424C103.834 15.6554 103.677 14.9707 103.34 14.3645C103.205 14.1521 103.015 13.9781 102.787 13.8605C102.56 13.7428 102.304 13.6857 102.047 13.6951C100.996 13.6951 100.386 14.4863 100.323 16.0584V16.7076C100.283 17.3899 100.436 18.0699 100.764 18.6753C100.903 18.8847 101.094 19.057 101.32 19.1764C101.546 19.2958 101.8 19.3583 102.057 19.3583C102.315 19.3583 102.568 19.2958 102.794 19.1764C103.02 19.057 103.211 18.8847 103.35 18.6753C103.673 18.0787 103.825 17.4101 103.792 16.738V16.3424Z" fill="white"/>
</svg>
