<svg width="150" height="70" viewBox="0 0 150 70" fill="none" xmlns="http://www.w3.org/2000/svg">
<g clip-path="url(#clip0_62_4123)">
<path fill-rule="evenodd" clip-rule="evenodd" d="M64.6536 53C64.8375 53 65.0139 52.9288 65.145 52.8017C65.2762 52.6747 65.3514 52.5019 65.3547 52.3205V30.0685C65.3547 28.289 66.0712 26.5824 67.3466 25.3241C68.6221 24.0658 70.352 23.3589 72.1557 23.3589H78.7969C80.5943 23.3685 82.3147 24.0797 83.5822 25.3369C84.8496 26.5942 85.5611 28.2953 85.5611 30.0685V34.8004C85.5578 36.5789 84.8402 38.2836 83.5655 39.5412C82.2908 40.7988 80.5628 41.5068 78.76 41.51H69.4255C69.2428 41.51 69.0676 41.5816 68.9385 41.709C68.8093 41.8364 68.7367 42.0092 68.7367 42.1894C68.7367 42.3696 68.8093 42.5425 68.9385 42.6699C69.0676 42.7973 69.2428 42.8689 69.4255 42.8689H78.8092C80.9794 42.8689 83.0609 42.0192 84.5966 40.5064C86.1323 38.9936 86.9967 36.9414 87 34.8004V30.0685C87 27.9307 86.14 25.8803 84.6089 24.3675C83.0778 22.8547 81.0007 22.0032 78.8338 22H72.1926C70.0224 22 67.9409 22.8497 66.4052 24.3625C64.8695 25.8753 64.0051 27.9275 64.0018 30.0685V52.272C63.9952 52.3622 64.0068 52.4529 64.0361 52.5386C64.0654 52.6243 64.1118 52.7034 64.1725 52.7712C64.2333 52.8391 64.3071 52.8942 64.3897 52.9335C64.4723 52.9728 64.5621 52.9954 64.6536 53Z" fill="white"/>
<path fill-rule="evenodd" clip-rule="evenodd" d="M93.3406 42.9991C93.5165 42.9959 93.6842 42.9216 93.8076 42.7922C93.9309 42.6628 94 42.4886 94 42.3072V25.7264C94.0015 25.2376 93.9095 24.7533 93.7291 24.3013C93.5487 23.8493 93.2835 23.4384 92.9488 23.0922C92.614 22.746 92.2163 22.4713 91.7784 22.2839C91.3404 22.0965 90.8709 22 90.3968 22H87.5825C87.4213 22.0222 87.2733 22.1039 87.1662 22.2301C87.0591 22.3562 87 22.5181 87 22.6858C87 22.8535 87.0591 23.0154 87.1662 23.1416C87.2733 23.2677 87.4213 23.3495 87.5825 23.3716H90.3497C90.6491 23.3716 90.9456 23.4326 91.2221 23.5511C91.4986 23.6696 91.7496 23.8432 91.9608 24.0621C92.172 24.2809 92.3392 24.5406 92.4527 24.8262C92.5662 25.1118 92.6238 25.4178 92.6223 25.7264V42.3072C92.6237 42.4018 92.6437 42.4951 92.6809 42.5815C92.7181 42.668 92.7718 42.7458 92.8389 42.8104C92.9059 42.875 92.9849 42.9249 93.0711 42.9574C93.1573 42.9898 93.2489 43.004 93.3406 42.9991Z" fill="white"/>
<path d="M93.4365 19.7589L92.2418 18.5674C92.1654 18.4949 92.1046 18.4077 92.063 18.3111C92.0214 18.2145 92 18.1105 92 18.0053C92 17.9002 92.0214 17.7962 92.063 17.6996C92.1046 17.6029 92.1654 17.5158 92.2418 17.4433L93.4365 16.2518C93.5073 16.1726 93.5941 16.1092 93.6912 16.0658C93.7884 16.0224 93.8936 16 94 16C94.1064 16 94.2116 16.0224 94.3088 16.0658C94.4059 16.1092 94.4927 16.1726 94.5635 16.2518L95.7582 17.4433C95.8346 17.5158 95.8955 17.6029 95.937 17.6996C95.9786 17.7962 96 17.9002 96 18.0053C96 18.1105 95.9786 18.2145 95.937 18.3111C95.8955 18.4077 95.8346 18.4949 95.7582 18.5674L94.5635 19.7589C94.4909 19.8351 94.4035 19.8957 94.3066 19.9372C94.2097 19.9786 94.1054 20 94 20C93.8946 20 93.7903 19.9786 93.6934 19.9372C93.5965 19.8957 93.5091 19.8351 93.4365 19.7589Z" fill="#32BCAD"/>
<path fill-rule="evenodd" clip-rule="evenodd" d="M115.32 30.2299C115.039 30.5031 114.662 30.656 114.269 30.656C113.876 30.656 113.499 30.5031 113.217 30.2299L106.73 23.7602C106.168 23.2015 105.501 22.7585 104.767 22.4565C104.033 22.1545 103.247 21.9994 102.453 22H99.6691C99.4916 22 99.3214 22.0702 99.196 22.1951C99.0705 22.32 99 22.4894 99 22.666C99 22.8438 99.0701 23.0144 99.1952 23.1412C99.3204 23.268 99.4905 23.3408 99.6691 23.3439H102.453C103.07 23.3436 103.68 23.4642 104.25 23.6989C104.82 23.9335 105.338 24.2777 105.774 24.7116L112.274 31.1814C112.804 31.7057 113.521 32 114.269 32C115.016 32 115.734 31.7057 116.264 31.1814L122.74 24.7354C123.177 24.3 123.697 23.9551 124.269 23.7204C124.841 23.4856 125.454 23.3658 126.073 23.3677H128.331C128.5 23.3654 128.661 23.3009 128.785 23.1866C128.909 23.0724 128.985 22.9165 129 22.7493C129 22.5726 128.93 22.4032 128.804 22.2783C128.679 22.1534 128.508 22.0833 128.331 22.0833H126.073C124.49 22.0768 122.968 22.6872 121.832 23.7839L115.32 30.2299Z" fill="white"/>
<path fill-rule="evenodd" clip-rule="evenodd" d="M99 42.3212C99 42.4992 99.0701 42.67 99.1952 42.797C99.3204 42.924 99.4905 42.9969 99.6691 43H102.453C104.058 42.9968 105.596 42.3586 106.73 41.2255L113.217 34.7586C113.355 34.6203 113.519 34.5106 113.699 34.4357C113.88 34.3608 114.073 34.3223 114.269 34.3223C114.464 34.3223 114.658 34.3608 114.838 34.4357C115.019 34.5106 115.182 34.6203 115.32 34.7586L121.832 41.1898C122.969 42.3247 124.511 42.9629 126.121 42.9643H128.379C128.543 42.9501 128.696 42.8771 128.81 42.7588C128.925 42.6406 128.992 42.4851 129 42.3212C129 42.1443 128.93 41.9746 128.804 41.8496C128.679 41.7245 128.508 41.6542 128.331 41.6542H126.073C125.453 41.6539 124.84 41.5317 124.268 41.2947C123.696 41.0576 123.177 40.7103 122.74 40.2727L116.264 33.8297C116.003 33.5668 115.692 33.3581 115.35 33.2157C115.007 33.0733 114.64 33 114.269 33C113.898 33 113.53 33.0733 113.188 33.2157C112.845 33.3581 112.535 33.5668 112.274 33.8297L105.774 40.2965C104.894 41.1774 103.7 41.6743 102.453 41.678H99.6691C99.4957 41.6779 99.329 41.7449 99.2042 41.8649C99.0794 41.9849 99.0062 42.1484 99 42.3212Z" fill="white"/>
<path d="M47.383 46.3701C46.7029 46.3724 46.029 46.2351 45.4 45.9661C44.7709 45.6971 44.199 45.3017 43.7169 44.8026L38.4254 39.2977C38.2409 39.107 37.9914 39 37.7314 39C37.4713 39 37.2218 39.107 37.0373 39.2977L31.7458 44.8149C31.2645 45.3195 30.6913 45.7191 30.0598 45.9904C29.4282 46.2616 28.751 46.3991 28.0678 46.3948H27L33.7034 53.3684C34.2003 53.8857 34.7903 54.296 35.4397 54.576C36.0891 54.8559 36.7852 55 37.4881 55C38.1911 55 38.8871 54.8559 39.5366 54.576C40.186 54.296 40.776 53.8857 41.2729 53.3684L48 46.3701H47.383Z" fill="#32BCAD"/>
<path d="M28.0666 27.5697C28.7512 27.5729 29.4283 27.7172 30.0589 27.9942C30.6895 28.2713 31.261 28.6755 31.7404 29.1836L37.0378 34.7028C37.2221 34.8932 37.4713 35 37.7311 35C37.9909 35 38.2401 34.8932 38.4244 34.7028L43.6981 29.1836C44.1774 28.6815 44.748 28.2834 45.3767 28.0127C46.0054 27.742 46.6796 27.604 47.36 27.6067H48L41.2805 20.6337C40.7849 20.1159 40.1958 19.705 39.5471 19.4247C38.8983 19.1443 38.2026 19 37.5 19C36.7974 19 36.1017 19.1443 35.453 19.4247C34.8042 19.705 34.2151 20.1159 33.7195 20.6337L27 27.5697H28.0666Z" fill="#32BCAD"/>
<path d="M54.4141 33.1029L50.2939 29C50.2014 29.0373 50.1029 29.0578 50.0031 29.0605H48.0884C47.1064 29.0655 46.1659 29.4569 45.4709 30.1498L40.0661 35.5356C39.8277 35.7785 39.5429 35.9711 39.2286 36.1021C38.9143 36.2331 38.5769 36.2997 38.2363 36.298C37.8969 36.2993 37.5605 36.2336 37.2465 36.1049C36.9325 35.9761 36.6471 35.7867 36.4064 35.5477L30.9775 30.0893C30.2839 29.3942 29.3425 29.0024 28.3599 29H26.0575C25.9615 29.0199 25.8625 29.0199 25.7666 29L21.598 33.1029C20.5745 34.1302 20 35.5205 20 36.9697C20 38.419 20.5745 39.8092 21.598 40.8366L25.7666 45C25.8586 44.9817 25.9533 44.9817 26.0453 45H28.3599C29.3422 44.9963 30.2832 44.6047 30.9775 43.9107L36.4064 38.5008C36.8972 38.036 37.5478 37.7769 38.2242 37.7769C38.9005 37.7769 39.5511 38.036 40.0419 38.5008L45.4466 43.8381C46.1437 44.5265 47.0839 44.9135 48.0642 44.9153H49.9546C50.0544 44.918 50.1529 44.9384 50.2455 44.9758L54.3899 40.8366C55.4166 39.8124 55.9954 38.424 56 36.9747C56.0045 35.5255 55.4343 34.1334 54.4141 33.1029Z" fill="#32BCAD"/>
<path d="M70.0731 50.2429C69.7684 50.2588 69.4661 50.3169 69.1717 50.416V51.8679C69.3948 51.9702 69.6314 52.0199 69.8693 52.0144C70.4702 52.0144 70.76 51.7613 70.76 51.1086C70.76 50.456 70.5239 50.2429 70.0731 50.2429ZM69 53V50.0697H69.1717V50.1896C69.4773 50.0897 69.79 50.0272 70.1053 50.0031C70.3281 49.9827 70.5492 50.0631 70.7278 50.2296C70.8241 50.3461 70.8982 50.488 70.9446 50.6447C70.9911 50.8014 71.0086 50.969 70.9961 51.1353C71.0072 51.3216 70.9771 51.5082 70.909 51.6749C70.8409 51.8416 70.7374 51.982 70.6097 52.081C70.3925 52.2112 70.1533 52.2752 69.9122 52.2674C69.6685 52.2679 69.4261 52.223 69.1932 52.1342V53H69Z" fill="white"/>
<path d="M72.9995 50.1993C72.4471 50.1993 72.2005 50.4105 72.2005 50.9852C72.2005 51.5599 72.4471 51.7945 72.9995 51.7945C73.552 51.7945 73.7986 51.5951 73.7986 51.0204C73.7986 50.4456 73.552 50.1993 72.9995 50.1993ZM73.7098 51.7945C73.498 51.9521 73.2483 52.0222 72.9995 51.9938C72.7511 52.0164 72.5029 51.9467 72.2892 51.7945C72.1898 51.7 72.1116 51.5777 72.0617 51.4385C72.0118 51.2993 71.9916 51.1476 72.0032 50.9969C71.9942 50.8465 72.0155 50.6957 72.0652 50.5571C72.115 50.4184 72.1917 50.2958 72.2892 50.1993C72.5098 50.0682 72.753 50 72.9995 50C73.2461 50 73.4893 50.0682 73.7098 50.1993C73.8092 50.2938 73.8874 50.4161 73.9374 50.5553C73.9873 50.6945 74.0074 50.8462 73.9959 50.9969C74.0092 51.1478 73.99 51.3002 73.9399 51.4398C73.8898 51.5794 73.8106 51.7015 73.7098 51.7945Z" fill="white"/>
<path d="M77.8881 52L77.0339 50.3354L76.139 52H75.9085L75 50H75.2847L76.139 51.677L76.9525 50H77.1831L77.9966 51.677L78.7288 50H79L78.1051 52H77.8881Z" fill="white"/>
<path d="M79.992 50.2016C79.4333 50.2016 79.2399 50.471 79.2077 50.8575H80.7655C80.7118 50.471 80.5507 50.2016 79.992 50.2016ZM79.992 51.9936C79.7379 52.0226 79.4827 51.952 79.2721 51.7945C79.1763 51.6915 79.1025 51.5667 79.0561 51.429C79.0097 51.2914 78.9917 51.1442 79.0035 50.9981C78.9959 50.8453 79.0211 50.6927 79.077 50.5524C79.133 50.4121 79.2182 50.288 79.3258 50.1899C79.5295 50.0559 79.7651 49.9906 80.0027 50.0025C80.2442 49.986 80.4844 50.0515 80.6903 50.1899C80.8035 50.295 80.8904 50.4295 80.943 50.5811C80.9956 50.7326 81.0122 50.8962 80.9912 51.0566H79.1969C79.1969 51.4431 79.3259 51.7945 80.0027 51.7945C80.302 51.7845 80.6002 51.7492 80.8945 51.6891V51.8882C80.5927 51.947 80.2876 51.9822 79.9812 51.9936H79.992Z" fill="white"/>
<path d="M82 52V50.0602H82.1579V50.1687C82.4308 50.0699 82.714 50.0131 83 50V50.2169C82.7282 50.2257 82.4589 50.2784 82.2 50.3735V52H82Z" fill="white"/>
<path d="M83.9908 50.2022C83.4328 50.2022 83.2503 50.4715 83.2074 50.8579H84.7634C84.7527 50.4715 84.5488 50.2022 83.9908 50.2022ZM83.9908 51.9936C83.7371 52.0226 83.4822 51.9521 83.2718 51.7946C83.1761 51.6916 83.1024 51.5669 83.056 51.4292C83.0096 51.2916 82.9917 51.1445 83.0035 50.9984C82.9984 50.846 83.0246 50.6943 83.0803 50.5545C83.136 50.4147 83.2198 50.2903 83.3255 50.1905C83.5289 50.0565 83.7642 49.9913 84.0015 50.0032C84.2429 49.9843 84.4835 50.0499 84.6883 50.1905C84.8038 50.2934 84.8924 50.4276 84.9451 50.5797C84.9979 50.7318 85.013 50.8964 84.9888 51.0569H83.2074C83.2074 51.4433 83.3255 51.7946 84.0015 51.7946C84.3005 51.7852 84.5983 51.75 84.8922 51.6892V51.8882C84.5909 51.9477 84.2861 51.9829 83.9801 51.9936H83.9908Z" fill="white"/>
<path d="M87.8185 50.1463C87.5954 50.052 87.3609 50.0036 87.1247 50.003C86.527 50.003 86.2388 50.2505 86.2388 50.8887C86.2388 51.527 86.4736 51.7745 86.9219 51.7745C87.2245 51.7524 87.5247 51.6958 87.8185 51.6051V50.1463ZM87.8185 51.9438V51.8136C87.5112 51.9123 87.1965 51.9734 86.8792 51.9959C86.6624 52.0188 86.4462 51.9448 86.2708 51.7875C86.1748 51.671 86.101 51.53 86.0549 51.3746C86.0088 51.2192 85.9914 51.0533 86.004 50.8887C85.9949 50.7086 86.0258 50.5289 86.0934 50.3684C86.1611 50.2079 86.2629 50.0727 86.3882 49.9769C86.6016 49.8393 86.8408 49.7719 87.082 49.7815C87.324 49.7874 87.5644 49.8312 87.7972 49.9118V49H88V51.9829L87.8185 51.9438Z" fill="white"/>
<path d="M91.083 50.0172C90.7815 50.0328 90.4823 50.0896 90.1911 50.1867V51.6082C90.4121 51.7075 90.646 51.7561 90.8813 51.7516C91.4758 51.7516 91.7625 51.5038 91.7625 50.8648C91.7625 50.2258 91.5289 50.0172 91.083 50.0172ZM91.5926 51.8168C91.3777 51.9444 91.1411 52.007 90.9025 51.9994C90.6425 51.9982 90.3843 51.9454 90.138 51.8429V51.9472H90V49H90.2124V50.0041C90.5111 49.9063 90.8169 49.8452 91.1255 49.8216C91.3423 49.8035 91.5572 49.8823 91.7307 50.0433C91.826 50.1574 91.8993 50.2962 91.9452 50.4497C91.9911 50.6031 92.0085 50.7673 91.9961 50.93C91.9991 51.1086 91.9633 51.2848 91.8924 51.4407C91.8215 51.5966 91.718 51.7264 91.5926 51.8168Z" fill="white"/>
<path d="M93.0435 53V52.7621H93.3044C93.4219 52.7728 93.5389 52.7357 93.6373 52.6568C93.7356 52.5779 93.8097 52.4615 93.8478 52.326L93.9239 52.1542L93 50.0264H93.2391L94.0217 51.837L94.7717 50H95L94.0217 52.3921C93.9676 52.5738 93.8661 52.729 93.7326 52.834C93.5992 52.939 93.4411 52.988 93.2826 52.9736L93.0435 53Z" fill="white"/>
<path d="M98.4451 51.7363H97.5998V52.5085H98.4587C99.0449 52.5085 99.263 52.5085 99.263 52.1157C99.263 51.7228 98.9631 51.7363 98.4451 51.7363ZM98.2951 50.4899H97.5998V51.2757H98.2951C98.8813 51.2757 99.1131 51.2757 99.1131 50.8828C99.1131 50.4899 98.8132 50.4899 98.2951 50.4899ZM99.6584 52.7795C99.23 52.9658 98.7596 53.0359 98.2951 52.9827H97V50.0158H98.2679C98.6999 49.9669 99.1373 50.0323 99.5357 50.2054C99.6362 50.2675 99.7175 50.3561 99.7704 50.4614C99.8234 50.5666 99.8459 50.6843 99.8356 50.8015C99.8469 50.9466 99.8068 51.0911 99.7221 51.2099C99.6375 51.3287 99.5136 51.4143 99.3721 51.4518C99.7538 51.5466 99.9992 51.7363 99.9992 52.1563C100.006 52.2862 99.9726 52.415 99.9046 52.5261C99.8365 52.6372 99.7365 52.7255 99.6175 52.7795H99.6584Z" fill="white"/>
<path d="M101.514 51.1544H100.909C100.564 51.1544 100.449 51.2247 100.449 51.4004C100.449 51.5761 100.543 51.6581 100.815 51.6581C101.05 51.646 101.284 51.6107 101.514 51.5526V51.1544ZM101.618 51.9509V51.8338C101.319 51.9283 101.011 51.9833 100.7 51.9978C100.522 52.0108 100.345 51.9661 100.189 51.8689C100.127 51.815 100.078 51.7455 100.046 51.666C100.013 51.5866 99.9976 51.4995 100.001 51.4121C99.995 51.3041 100.019 51.1967 100.069 51.1045C100.12 51.0123 100.194 50.9397 100.283 50.8967C100.486 50.8127 100.703 50.7768 100.919 50.7912C101.121 50.7799 101.322 50.7799 101.524 50.7912C101.524 50.4867 101.357 50.3929 100.877 50.3929H100.262V50.0064C100.502 50.0064 100.762 50.0064 100.982 50.0064C101.252 49.979 101.524 50.04 101.764 50.1821C101.849 50.2572 101.916 50.3564 101.956 50.4695C101.996 50.5827 102.009 50.7058 101.994 50.8264V51.9978L101.618 51.9509Z" fill="white"/>
<path d="M104.558 51.988V50.9239C104.558 50.5652 104.405 50.4456 104.13 50.4456C103.903 50.4578 103.678 50.4979 103.458 50.5652V51.988H103V50.063H103.377V50.1826C103.662 50.0844 103.956 50.0242 104.253 50.0032C104.455 49.9834 104.655 50.0562 104.813 50.2065C104.88 50.2829 104.932 50.3766 104.964 50.4803C104.996 50.5839 105.007 50.6948 104.996 50.8043V52L104.558 51.988Z" fill="white"/>
<path d="M107.045 51.9959C106.787 52.0178 106.531 51.9514 106.319 51.8084C106.207 51.7056 106.12 51.5793 106.065 51.4392C106.011 51.299 105.99 51.1486 106.004 50.9995C105.997 50.8433 106.03 50.6877 106.099 50.5466C106.169 50.4055 106.273 50.2832 106.404 50.1907C106.665 50.0496 106.963 49.9845 107.262 50.0031H107.952V50.472C107.746 50.4607 107.54 50.4607 107.335 50.472C106.815 50.472 106.573 50.6244 106.573 51.0581C106.573 51.4919 106.754 51.6442 107.178 51.6442C107.454 51.6335 107.729 51.6021 108 51.5505V51.9373C107.684 51.9855 107.364 52.0051 107.045 51.9959Z" fill="white"/>
<path d="M109.505 50.4047C108.906 50.4047 108.642 50.5576 108.642 50.9928C108.642 51.428 108.906 51.6162 109.505 51.6162C110.104 51.6162 110.355 51.4516 110.355 51.0281C110.355 50.6047 110.104 50.4047 109.505 50.4047ZM110.577 51.8162C110.236 51.9375 109.869 52 109.498 52C109.128 52 108.761 51.9375 108.419 51.8162C108.287 51.7137 108.182 51.5892 108.109 51.4505C108.037 51.3118 108 51.162 108 51.0105C108 50.859 108.037 50.7091 108.109 50.5705C108.182 50.4318 108.287 50.3072 108.419 50.2048C108.75 50.0498 109.128 49.9803 109.505 50.0048C109.878 49.9819 110.251 50.0514 110.577 50.2048C110.722 50.2967 110.837 50.4186 110.91 50.5586C110.983 50.6987 111.012 50.8522 110.995 51.0046C111.012 51.1587 110.983 51.3139 110.91 51.4558C110.837 51.5977 110.722 51.7217 110.577 51.8162Z" fill="white"/>
<path d="M113.537 51.9965C113.161 52.0208 112.788 51.9187 112.481 51.7075C112.311 51.5549 112.18 51.3665 112.098 51.1569C112.016 50.9472 111.985 50.722 112.007 50.4988C111.996 50.2621 112.047 50.0266 112.153 49.8134C112.259 49.6002 112.419 49.4158 112.616 49.277C112.997 49.0753 113.43 48.9841 113.862 49.0142C114.21 48.9953 114.558 48.9953 114.905 49.0142V49.5266C114.58 49.5266 114.201 49.5266 113.889 49.5266C113.05 49.5266 112.698 49.8419 112.698 50.4988C112.698 51.1557 113.023 51.4841 113.646 51.4841C114.102 51.4709 114.556 51.4137 115 51.3133V51.8257C114.519 51.9245 114.029 51.9816 113.537 51.9965Z" fill="white"/>
<path d="M116.01 50.3434C115.641 50.3434 115.491 50.4957 115.462 50.7886H116.548C116.538 50.4723 116.379 50.3434 116.01 50.3434ZM115.94 51.9954C115.702 52.0194 115.463 51.9493 115.262 51.7962C115.171 51.6948 115.1 51.5705 115.055 51.4326C115.01 51.2947 114.992 51.1466 115.003 50.9995C114.997 50.8485 115.02 50.6979 115.072 50.5596C115.124 50.4213 115.203 50.2991 115.302 50.2028C115.515 50.0523 115.762 49.9828 116.01 50.0036C116.253 49.9885 116.495 50.0534 116.708 50.1911C116.819 50.3064 116.902 50.453 116.951 50.6171C117 50.7811 117.013 50.9571 116.987 51.1284H115.462C115.462 51.4213 115.601 51.6087 116.05 51.6087C116.338 51.5987 116.624 51.5634 116.907 51.5033V51.8782C116.588 51.9474 116.265 51.9866 115.94 51.9954Z" fill="white"/>
<path d="M119.557 51.988V50.9235C119.557 50.5647 119.405 50.4451 119.13 50.4451C118.903 50.4565 118.678 50.4966 118.458 50.5647V51.988H118V50.0623H118.377V50.1819C118.665 50.0839 118.962 50.0238 119.262 50.0025C119.464 49.9852 119.664 50.0578 119.822 50.2059C119.888 50.2834 119.938 50.3777 119.967 50.4813C119.997 50.585 120.007 50.6953 119.995 50.8039V52L119.557 51.988Z" fill="white"/>
<path d="M122.416 52.9813C122.269 52.9959 122.121 52.9737 121.985 52.9171C121.85 52.8605 121.732 52.7712 121.642 52.6579C121.517 52.4544 121.461 52.2185 121.482 51.9829V51.1532H121V50.6891H121.482V50H122.066V50.6891H123V51.1532H122.066V51.8844C122.033 52.028 122.033 52.1768 122.066 52.3204C122.108 52.3912 122.17 52.4488 122.245 52.4862C122.32 52.5236 122.405 52.5393 122.489 52.5313C122.644 52.5469 122.801 52.5469 122.956 52.5313V52.9954C122.776 53.0046 122.595 52.9999 122.416 52.9813Z" fill="white"/>
<path d="M123 51.988V50.0599H123.295V50.1796C123.507 50.0765 123.728 50.0161 123.951 50H124V50.479H123.869C123.695 50.477 123.521 50.5092 123.352 50.5749V52L123 51.988Z" fill="white"/>
<path d="M126.549 51.0741H125.923C125.573 51.0741 125.457 51.1444 125.457 51.3202C125.457 51.496 125.563 51.5781 125.828 51.5781C126.07 51.5652 126.312 51.5299 126.549 51.4726V51.0741ZM126.644 51.8711V51.7539C126.34 51.8484 126.027 51.9035 125.711 51.918C125.53 51.931 125.35 51.8862 125.192 51.789C125.129 51.7351 125.079 51.6655 125.046 51.586C125.013 51.5065 124.997 51.4194 125.001 51.3319C124.996 51.2225 125.021 51.1141 125.075 51.0217C125.128 50.9293 125.206 50.8575 125.298 50.8162C125.501 50.7322 125.717 50.6963 125.934 50.7107C126.114 50.7107 126.358 50.7107 126.56 50.7107C126.56 50.406 126.379 50.3122 125.902 50.3122L125.223 50.3943V50.0075C125.467 50.0075 125.732 50.0075 125.955 50.0075C126.23 49.9774 126.507 50.0386 126.751 50.1833C126.839 50.2571 126.909 50.3558 126.952 50.4691C126.994 50.5824 127.009 50.7062 126.994 50.8279V52L126.644 51.8711Z" fill="white"/>
<path d="M128 49H129V52H128V49Z" fill="white"/>
</g>
<defs>
<clipPath id="clip0_62_4123">
<rect width="150" height="70" fill="white"/>
</clipPath>
</defs>
</svg>
