<svg width="150" height="70" viewBox="0 0 150 70" fill="none" xmlns="http://www.w3.org/2000/svg">
<path d="M41 15H45.6667L49.4863 25.8439L53.5585 15H56.409L60.4811 25.689L64.3089 15H69L62.0774 34H59.0477L54.9756 23.1561L50.8057 34H47.8493" fill="white"/>
<path d="M81.9519 22.6217C81.62 21.5831 80.9277 20.6821 79.988 20.0655C78.9976 19.4009 77.8103 19.0536 76.5982 19.0739C75.2748 19.0509 73.9804 19.4429 72.915 20.1894C72.0999 20.8562 71.4678 21.7017 71.0733 22.6527L81.9519 22.6217ZM86.9634 26.3786H70.8533C71.0347 27.6352 71.6996 28.7832 72.7194 29.601C73.8179 30.4261 75.1912 30.8493 76.59 30.794C77.4832 30.8042 78.3695 30.6442 79.1966 30.3236C80.0237 30.003 80.775 29.5282 81.4059 28.9271H86.2952C86.2617 29.6016 86.0364 30.2548 85.6433 30.8172C84.6883 32.159 83.3862 33.2447 81.8623 33.9699C80.2204 34.6857 78.4283 35.0354 76.6226 34.9924C75.2109 35.0452 73.8028 34.8222 72.4853 34.3372C71.1678 33.8523 69.969 33.1156 68.9628 32.1728C67.9881 31.2482 67.2229 30.1438 66.7142 28.9275C66.2055 27.7112 65.9641 26.4088 66.0048 25.1005C65.9622 23.7706 66.2014 22.4461 66.7082 21.2059C67.215 19.9656 67.9789 18.8349 68.9547 17.881C69.9095 16.9408 71.0597 16.1998 72.3321 15.705C73.6045 15.2103 74.9713 14.9726 76.3456 15.0072C77.7658 14.9554 79.1819 15.1841 80.5045 15.6787C81.827 16.1734 83.0274 16.9232 84.0298 17.881C85.0347 18.8953 85.8145 20.0916 86.3227 21.3984C86.8308 22.7053 87.0571 24.0961 86.9878 25.4878" fill="white"/>
<path d="M97.4007 19.2793C96.6578 19.2621 95.9193 19.3923 95.2329 19.6616C94.5465 19.9309 93.9275 20.3333 93.4157 20.8427C92.8795 21.3839 92.463 22.0208 92.1904 22.7161C91.9178 23.4114 91.7947 24.1511 91.8283 24.892C91.7513 26.4076 92.3099 27.8908 93.3827 29.0193C93.8949 29.5227 94.5092 29.9231 95.189 30.1966C95.8688 30.4702 96.6 30.6112 97.3387 30.6112C98.0775 30.6112 98.8087 30.4702 99.4885 30.1966C100.168 29.9231 100.783 29.5227 101.295 29.0193C102.374 27.9043 102.947 26.4335 102.89 24.9232C102.947 23.4336 102.383 21.9825 101.32 20.8818C100.816 20.3704 100.204 19.9664 99.5221 19.6968C98.8406 19.4272 98.1061 19.2982 97.3677 19.3184M92.0516 9V17.4502C92.9062 16.6255 93.9191 15.9622 95.0362 15.4959C96.1197 15.0554 97.2879 14.8318 98.4673 14.8393C99.7415 14.8254 101.004 15.0718 102.168 15.5615C103.333 16.0512 104.371 16.7727 105.214 17.6769C107.106 19.6685 108.103 22.2793 107.992 24.9545C108.071 27.6079 107.04 30.1838 105.123 32.1227C104.271 33.0264 103.226 33.7498 102.058 34.2455C100.89 34.7413 99.6238 34.9981 98.3433 34.9993C97.2107 35.0132 96.0865 34.8139 95.0362 34.413C93.9244 33.9344 92.9133 33.2697 92.0516 32.451V34.4756H87V9" fill="white"/>
<path d="M57.8427 38.2304C57.1419 38.2181 56.4461 38.3445 55.799 38.6018C55.152 38.859 54.5677 39.2414 54.0831 39.725C53.5741 40.2471 53.1787 40.8606 52.9197 41.5297C52.6608 42.1988 52.5434 42.9104 52.5744 43.6231C52.5404 44.3467 52.6561 45.0695 52.915 45.7503C53.1739 46.4311 53.5708 47.0565 54.0831 47.5906C54.5655 48.0905 55.1539 48.4864 55.8092 48.7521C56.4644 49.0178 57.1714 49.1471 57.883 49.1314C58.5847 49.1437 59.281 49.0126 59.9253 48.7469C60.5696 48.4811 61.1468 48.0869 61.6184 47.5906C62.6459 46.5227 63.1909 45.1109 63.1352 43.6616C63.1805 42.2413 62.6452 40.8598 61.6426 39.8097C61.1673 39.3116 60.586 38.9164 59.9375 38.6507C59.289 38.3849 58.5885 38.2548 57.883 38.2689M52.7842 34.4786V36.5047C53.6002 35.715 54.5633 35.0775 55.6241 34.625C56.657 34.2058 57.7691 33.9934 58.8915 34.001C60.1099 33.9827 61.3179 34.2171 62.4322 34.6879C63.5465 35.1587 64.5405 35.8548 65.3457 36.7282C67.1487 38.6415 68.0981 41.1514 67.992 43.7233C68.0359 44.9939 67.8169 46.2603 67.3476 47.4501C66.8783 48.6398 66.1679 49.7295 65.257 50.6567C64.4471 51.5272 63.453 52.2238 62.3405 52.7006C61.228 53.1773 60.0222 53.4233 58.8028 53.4224C57.7404 53.4337 56.6866 53.2398 55.7047 52.8523C54.6402 52.4075 53.6696 51.7809 52.8407 51.0034V59H48V34.4401" fill="#F7A519"/>
<path d="M78.0382 38.4351C77.2774 38.418 76.521 38.55 75.8164 38.823C75.1118 39.096 74.4741 39.5041 73.9432 40.0217C73.3979 40.5422 72.9689 41.1617 72.6817 41.8432C72.3945 42.5247 72.2551 43.2543 72.2718 43.9881C72.2461 44.7349 72.3811 45.4788 72.6685 46.1744C72.9558 46.87 73.3896 47.5027 73.9432 48.0339C74.4732 48.5505 75.1095 48.958 75.8126 49.2309C76.5157 49.5039 77.2704 49.6365 78.0299 49.6205C78.8039 49.6429 79.5744 49.5135 80.2934 49.2405C81.0123 48.9675 81.6643 48.5568 82.2085 48.0339C82.7645 47.4962 83.1994 46.8567 83.4868 46.1543C83.7741 45.452 83.9079 44.7014 83.8799 43.9485C83.9084 43.2061 83.7747 42.4662 83.487 41.7753C83.1993 41.0844 82.764 40.4576 82.2085 39.9344C81.6563 39.425 81.0018 39.0263 80.2839 38.7619C79.5661 38.4975 78.7995 38.3729 78.0299 38.3954M83.6208 34.4924H88V53.5155H83.6292V51.5085C82.7149 52.3146 81.6565 52.9593 80.5036 53.4124C79.4228 53.8129 78.2708 54.0122 77.1106 53.9994C75.7844 54.0103 74.4699 53.7633 73.2482 53.2734C72.0265 52.7836 70.9234 52.0615 70.007 51.1515C69.0189 50.2196 68.2428 49.1052 67.7267 47.8771C67.2107 46.649 66.9656 45.3335 67.0067 44.0119C66.9565 42.688 67.1873 41.3681 67.6855 40.1306C68.1837 38.8932 68.9391 37.7635 69.9067 36.8089C71.2594 35.4977 72.9885 34.5933 74.8787 34.2082C76.7689 33.8232 78.7367 33.9744 80.537 34.6432C81.6921 35.1243 82.7411 35.8079 83.6292 36.6581" fill="#F7A519"/>
<path d="M88 34H93.0824L98.2227 45.9339L103.901 34H109L96.592 60H91.4848L95.5573 51.6144" fill="#F7A519"/>
</svg>
